<?xml version="1.0" standalone="no"?>
<!DOCTYPE svg PUBLIC "-//W3C//DTD SVG 20010904//EN"
 "http://www.w3.org/TR/2001/REC-SVG-20010904/DTD/svg10.dtd">
<svg version="1.0" xmlns="http://www.w3.org/2000/svg"
 width="3507.000000pt" height="2728.000000pt" viewBox="0 0 3507.000000 2728.000000"
 preserveAspectRatio="xMidYMid meet">

<g transform="translate(0.000000,2728.000000) scale(0.100000,-0.100000)"
fill="#000000" stroke="none">
<path d="M11204 24065 c-10 -8 -14 -15 -8 -15 6 0 17 7 24 15 16 19 9 19 -16
0z"/>
<path d="M11037 23968 c-160 -100 -144 -104 24 -6 72 43 104 66 98 73 -3 3
-58 -28 -122 -67z"/>
<path d="M10732 23773 c-55 -38 -64 -55 -15 -29 36 19 91 65 78 65 -5 0 -34
-16 -63 -36z"/>
<path d="M10592 23685 c-92 -52 -332 -213 -426 -284 -120 -91 -314 -240 -414
-319 -40 -31 -102 -77 -136 -102 -34 -25 -83 -62 -109 -83 -40 -34 -45 -41
-34 -57 6 -11 9 -20 7 -22 -3 -2 -30 -16 -60 -32 -71 -37 -106 -66 -330 -265
-292 -261 -464 -426 -589 -566 -64 -71 -156 -173 -205 -225 -136 -144 -303
-334 -388 -440 -42 -52 -129 -158 -192 -235 -64 -77 -153 -193 -199 -258 -45
-65 -128 -182 -184 -260 -154 -214 -361 -526 -445 -672 -157 -272 -191 -331
-211 -359 -25 -35 -326 -633 -434 -861 -122 -256 -349 -811 -407 -995 -21 -63
-54 -162 -75 -220 -80 -223 -177 -560 -236 -820 -9 -41 -21 -86 -27 -100 -10
-25 -86 -346 -107 -450 -24 -124 -102 -541 -116 -615 -8 -44 -21 -145 -29
-225 -23 -208 -36 -322 -52 -430 -22 -147 -60 -848 -58 -1060 4 -345 16 -725
29 -870 8 -91 20 -219 25 -285 6 -66 15 -163 21 -215 5 -52 14 -149 19 -215
11 -123 18 -175 95 -640 101 -605 311 -1401 513 -1935 46 -124 108 -290 137
-370 49 -133 91 -234 220 -520 100 -222 179 -389 235 -495 195 -371 347 -646
417 -755 44 -69 134 -213 200 -320 118 -190 248 -379 516 -747 56 -78 301
-380 472 -583 57 -69 105 -130 105 -137 0 -6 6 -13 13 -15 7 -2 76 -70 153
-153 319 -344 856 -866 1027 -1001 93 -73 293 -237 407 -333 46 -39 143 -113
214 -164 70 -50 178 -129 240 -174 246 -181 376 -265 851 -553 415 -251 1017
-555 1480 -748 105 -44 235 -96 290 -116 55 -21 163 -62 240 -91 77 -29 181
-67 230 -83 50 -17 108 -37 130 -45 39 -14 150 -49 210 -67 17 -4 55 -14 85
-20 30 -7 109 -30 175 -51 267 -84 486 -135 1080 -255 96 -20 196 -34 230 -33
33 1 112 -10 175 -24 163 -36 277 -52 590 -86 512 -55 644 -62 1200 -62 502
-1 719 8 1000 41 185 21 281 30 332 30 29 0 123 9 208 20 153 20 184 25 490
80 85 16 189 34 230 40 207 33 406 76 610 131 124 34 274 72 333 85 141 31
179 42 447 132 124 41 230 81 235 88 10 13 165 63 215 69 16 2 38 9 49 14 11
6 29 11 40 11 10 0 21 4 23 9 2 5 84 39 183 76 161 60 245 98 245 111 0 2 -17
-4 -39 -15 -65 -34 -370 -145 -377 -138 -1 1 -7 18 -12 37 -7 25 -10 29 -11
13 -1 -19 -7 -23 -31 -23 -30 0 -30 1 -30 53 0 29 -5 58 -11 64 -18 18 10 113
33 113 11 0 18 -7 18 -19 0 -11 5 -21 12 -23 8 -3 9 -12 0 -35 -8 -24 -8 -33
1 -36 11 -4 310 2 313 6 1 1 5 17 9 35 l7 32 -81 0 c-73 0 -81 2 -81 19 0 10
-9 21 -20 24 -17 4 -20 14 -20 62 l0 58 37 -6 c21 -4 39 -11 41 -17 2 -5 12
-10 22 -10 23 0 34 45 25 100 -6 38 -6 39 29 45 48 9 66 1 66 -29 0 -19 -7
-27 -26 -32 -25 -6 -26 -9 -22 -68 2 -41 9 -66 21 -78 21 -22 67 -24 67 -3 0
8 5 15 10 15 6 0 10 9 10 20 0 13 7 20 20 20 11 0 20 4 20 9 0 21 -13 41 -26
41 -8 0 -14 4 -14 9 0 5 -10 11 -22 13 -28 4 -36 28 -10 28 50 0 70 33 37 60
-10 8 -15 29 -15 59 1 59 -3 81 -19 90 -7 5 -11 17 -9 26 1 10 6 17 9 14 4 -2
15 3 25 12 11 9 27 19 37 22 9 4 17 15 17 26 0 38 -104 42 -124 6 -6 -11 -12
-22 -14 -24 -1 -3 -12 5 -25 17 -12 11 -26 21 -31 21 -11 0 -37 49 -28 55 12
7 62 -6 62 -16 0 -6 11 -7 28 -3 64 17 104 16 123 -1 11 -10 19 -12 19 -6 0 7
-4 12 -8 12 -4 0 -9 20 -10 45 -2 49 8 55 38 25 11 -11 33 -20 51 -20 31 0 31
-1 27 -45 -3 -37 0 -45 14 -45 18 0 42 33 31 43 -3 4 2 9 11 13 24 9 21 54 -4
54 -11 0 -20 7 -20 15 0 8 -6 15 -13 15 -11 0 -12 11 -7 45 8 55 8 55 43 48
24 -5 27 -10 27 -44 0 -22 4 -39 10 -39 5 0 7 -7 4 -15 -3 -8 1 -21 9 -30 19
-18 93 -20 100 -2 2 6 2 45 -1 84 l-5 73 32 0 c17 0 31 -4 31 -9 0 -5 11 -11
25 -13 23 -5 25 -2 25 33 0 22 -3 39 -8 39 -4 0 -13 14 -21 31 -8 18 -22 34
-32 36 -16 5 -19 15 -19 64 0 43 4 59 14 59 7 0 20 10 28 22 9 14 20 19 31 15
14 -5 17 -20 17 -77 0 -65 2 -70 21 -70 21 0 21 4 16 66 -3 37 -1 80 4 98 12
42 3 63 -30 69 -24 5 -27 10 -26 39 1 25 6 34 22 36 11 2 26 -4 33 -13 14 -17
90 -21 90 -5 0 6 7 10 15 10 9 0 15 9 15 24 0 22 -5 24 -52 28 -29 2 -58 0
-65 -4 -6 -5 -23 -6 -37 -2 -22 5 -26 12 -26 40 0 34 25 74 46 74 6 0 19 -9
29 -20 23 -26 65 -26 95 0 12 11 27 17 33 13 6 -4 7 4 3 23 -4 16 -8 37 -9 47
-1 11 -12 20 -29 24 -15 3 -28 8 -28 12 1 17 19 31 33 25 15 -5 17 2 17 55 0
54 2 61 20 61 18 0 20 7 20 70 0 66 -2 71 -25 80 -14 5 -25 16 -25 24 0 19 67
29 148 23 l60 -5 -2 59 c-2 52 0 59 16 59 12 0 18 7 18 21 0 16 -5 20 -20 16
-16 -4 -20 0 -20 19 0 15 -6 24 -15 24 -8 0 -15 5 -15 11 0 23 -28 39 -59 33
-23 -5 -31 -3 -31 7 1 42 57 62 89 30 17 -17 25 -19 51 -10 36 13 46 27 31 42
-7 7 -11 51 -11 113 0 105 5 138 21 128 12 -7 11 3 -3 25 -7 11 -18 16 -30 13
-24 -6 -58 30 -62 66 -3 23 -8 27 -36 28 -53 1 -100 -26 -100 -56 0 -21 -7
-29 -35 -38 -37 -14 -123 -14 -131 0 -3 5 -9 6 -14 3 -4 -3 -6 4 -3 15 5 19
26 25 73 22 18 -1 50 16 50 27 0 5 -12 12 -27 16 -15 3 -22 9 -16 13 6 4 12
16 14 27 4 17 13 21 59 23 31 2 62 10 72 19 9 8 22 12 29 7 9 -5 11 5 6 45 -5
42 -3 52 7 48 8 -3 18 -1 24 5 8 8 14 4 21 -13 15 -42 36 -53 71 -39 19 8 30
20 30 32 0 10 -4 16 -10 13 -6 -4 -10 5 -10 19 0 19 5 26 20 26 23 0 27 25 6
46 -21 21 -26 18 -26 -16 0 -20 -5 -30 -15 -30 -8 0 -15 -5 -15 -10 0 -19 -40
10 -50 35 -8 21 -14 24 -39 19 -49 -10 -101 4 -101 26 0 16 7 20 35 20 34 0
35 1 35 40 0 39 1 40 35 40 24 0 37 -6 45 -20 14 -27 34 -25 54 5 20 30 21 75
1 101 -25 34 -18 44 30 44 l45 0 0 -40 c0 -38 2 -40 29 -40 17 0 32 4 35 9 3
5 3 50 -1 100 -5 82 -8 91 -26 91 -15 0 -18 5 -15 28 4 26 2 28 -34 27 -21 0
-38 -3 -38 -7 0 -5 -13 -8 -30 -8 -24 0 -30 4 -30 21 0 12 4 18 11 13 7 -4 10
-1 7 7 -3 8 -11 13 -17 12 -6 -2 -11 0 -11 3 0 10 28 34 41 34 7 0 4 -6 -7
-15 -18 -13 -17 -14 13 -10 18 2 35 -1 39 -6 10 -17 -4 -23 -21 -9 -9 7 -18
10 -22 6 -3 -3 -1 -6 6 -6 7 0 11 -6 8 -13 -3 -9 7 -12 33 -12 29 0 37 3 33
15 -4 12 -3 12 5 2 5 -8 13 -14 18 -13 5 0 8 -9 7 -19 -2 -13 3 -17 17 -13 15
4 20 0 20 -16 0 -14 6 -21 20 -21 13 0 20 -7 20 -20 0 -14 7 -20 24 -20 13 0
27 -6 29 -12 3 -8 6 -6 6 5 1 9 6 17 11 17 6 0 10 7 10 16 0 11 6 14 20 9 11
-4 20 -2 20 4 0 6 -9 11 -20 11 -11 0 -23 7 -26 15 -4 9 -19 15 -40 15 -27 0
-34 4 -34 20 0 14 -7 20 -21 20 -20 0 -21 4 -17 49 4 40 1 52 -15 66 -18 15
-19 25 -12 123 4 59 9 109 11 111 2 2 10 1 19 -2 11 -5 15 -21 16 -59 0 -29 8
-80 17 -113 16 -56 19 -60 47 -60 29 0 30 -2 29 -42 -1 -34 3 -43 16 -43 22 0
36 17 45 51 6 23 2 28 -24 37 -17 6 -31 14 -31 17 0 20 23 43 50 48 27 6 30
10 30 42 0 19 -4 35 -10 35 -5 0 -10 6 -10 13 0 7 -17 21 -39 30 -33 15 -40
24 -50 62 -16 64 -14 133 6 166 10 16 21 29 25 29 4 0 8 16 8 35 0 35 29 63
38 37 4 -14 62 -16 62 -3 0 5 9 12 20 16 13 4 19 14 18 31 -1 13 -6 24 -10 24
-4 0 -8 7 -8 15 0 19 -31 32 -71 29 -23 -2 -29 2 -29 17 0 13 -7 19 -21 19
-12 0 -23 8 -26 20 -5 18 -15 24 -35 22 -3 -1 -12 5 -18 13 -16 19 -46 19 -54
0 -9 -24 -24 -17 -31 14 -8 38 13 109 34 115 9 3 31 7 48 11 32 6 33 5 39 -34
7 -42 28 -55 36 -24 6 25 -11 85 -22 78 -6 -4 -10 9 -10 29 0 24 5 36 14 36 8
0 17 6 19 13 3 7 6 4 6 -6 1 -10 5 -15 11 -12 5 3 10 0 10 -8 0 -10 16 -17 50
-21 28 -4 50 -11 50 -16 0 -5 31 -8 70 -7 38 1 70 5 70 10 0 4 11 7 25 7 15 0
25 -6 25 -15 0 -24 -23 -65 -36 -65 -9 0 -13 -12 -12 -34 1 -29 5 -35 27 -39
14 -2 32 -6 40 -8 17 -5 29 29 30 84 1 23 7 40 16 43 8 4 15 15 15 25 0 13 7
19 23 19 13 0 33 9 45 20 12 11 28 20 37 20 11 0 15 10 15 35 0 28 -4 35 -20
35 -13 0 -20 7 -20 20 0 16 -6 19 -32 18 -18 -1 -49 -1 -69 0 -36 2 -36 3 -49
63 -13 59 -14 60 -44 57 -25 -2 -30 -7 -28 -23 2 -14 0 -16 -6 -7 -12 18 7
109 24 116 8 3 14 2 14 -3 0 -5 23 -9 50 -10 82 -2 80 -2 80 -38 0 -30 3 -33
30 -33 29 0 30 -2 30 -46 0 -40 2 -45 15 -34 13 11 14 10 9 -4 -3 -9 -1 -16 5
-16 6 0 10 3 10 8 -5 32 3 52 21 52 16 0 20 7 20 38 0 23 3 32 9 24 4 -7 22
-14 39 -14 20 -1 29 -5 25 -12 -4 -6 2 -4 12 4 10 8 16 10 12 4 -4 -7 0 -15 8
-18 18 -6 30 16 21 39 -3 8 -15 15 -26 15 -13 0 -20 7 -20 20 0 15 7 20 26 20
24 0 26 3 20 31 -3 17 -6 35 -6 40 0 5 -7 9 -16 9 -8 0 -12 5 -9 10 4 6 1 17
-5 25 -6 8 -10 33 -8 57 3 36 7 44 27 46 19 3 21 6 10 14 -12 8 -12 9 1 5 9
-2 14 -14 13 -30 -1 -19 2 -24 13 -20 11 4 14 -4 14 -33 0 -34 4 -41 30 -53
17 -7 37 -10 45 -7 17 6 21 52 5 58 -16 5 9 151 28 166 13 10 18 10 22 0 8
-21 30 -20 30 1 0 20 -27 29 -69 23 -17 -3 -20 -6 -11 -12 7 -4 10 -12 7 -18
-9 -14 -57 -2 -57 14 0 22 -3 28 -17 42 -7 7 -13 22 -13 33 0 12 -7 19 -20 19
-11 0 -23 7 -26 15 -10 25 18 41 68 38 37 -2 48 2 51 15 3 12 5 11 6 -5 1 -16
7 -23 20 -23 11 0 23 -9 26 -20 3 -11 14 -21 23 -21 9 -1 46 -3 82 -4 36 -1
71 -3 78 -4 13 -1 16 -38 6 -65 -3 -9 -15 -16 -25 -16 -11 0 -37 -5 -58 -12
-31 -10 -40 -18 -43 -38 -4 -23 -1 -26 19 -22 13 2 30 -1 38 -8 12 -10 15 -10
16 1 1 8 4 3 8 -11 5 -16 13 -24 24 -22 9 2 17 -2 17 -8 0 -5 5 -10 11 -10 5
0 7 5 3 12 -4 6 3 4 15 -5 30 -20 51 -12 51 22 0 18 3 22 9 13 6 -10 13 -11
27 -4 11 6 27 13 37 16 28 9 10 26 -28 26 -37 0 -97 29 -92 45 2 5 22 13 45
18 30 6 42 13 42 25 0 26 -12 38 -52 53 -21 7 -34 15 -30 18 5 4 2 17 -5 31
-11 22 -13 23 -13 5 0 -16 -2 -17 -9 -5 -6 8 -7 18 -5 22 3 4 -11 8 -30 8 -36
0 -53 17 -52 50 1 11 10 14 33 12 34 -4 63 15 63 40 0 7 10 14 23 14 30 3 49
8 67 19 54 35 120 48 120 24 0 -6 6 -9 13 -6 6 2 11 10 10 16 -2 6 6 11 17 11
30 0 25 -36 -7 -65 -25 -21 -27 -26 -15 -45 7 -11 10 -26 6 -32 -4 -6 -3 -9 2
-6 5 3 23 -1 39 -9 24 -11 25 -13 6 -9 -13 3 -20 1 -15 -3 5 -5 24 -11 42 -14
24 -5 32 -3 32 7 0 8 3 22 7 32 4 12 3 15 -5 10 -8 -5 -12 0 -12 14 0 15 5 20
15 17 21 -9 31 14 11 25 -9 5 -16 17 -16 26 0 15 2 15 10 2 9 -13 10 -13 10 0
0 8 7 28 16 45 8 16 13 37 11 47 -3 12 0 18 11 18 8 0 12 -3 8 -7 -3 -4 8 -12
26 -18 19 -6 32 -17 30 -24 -2 -8 3 -11 11 -8 7 3 19 -4 25 -14 7 -10 17 -19
23 -19 5 0 8 4 5 9 -3 5 1 11 9 15 8 3 15 12 15 21 0 9 7 30 16 46 11 22 21
30 34 26 11 -3 20 -1 22 3 2 5 10 10 18 12 8 2 17 6 20 10 8 10 80 17 74 7 -3
-5 4 -9 15 -9 19 0 21 6 21 61 l0 62 -30 -6 c-35 -8 -60 0 -60 18 0 7 -7 15
-15 19 -8 3 -15 12 -15 20 0 8 -8 17 -17 20 -10 3 -23 17 -30 31 -6 14 -7 23
-2 19 7 -4 15 111 11 147 -1 4 10 2 23 -5 14 -6 25 -20 26 -31 1 -17 2 -17 6
-2 10 39 33 9 33 -45 0 -22 -6 -31 -20 -35 -43 -11 -4 -71 49 -74 9 -1 5 -4
-9 -9 -24 -8 -24 -8 6 -9 63 -2 124 11 124 27 0 12 2 12 17 1 15 -13 15 -14 0
-17 -22 -5 -23 -60 -1 -69 26 -10 36 11 29 61 -5 34 -12 46 -24 46 -15 0 -17
12 -17 97 0 54 2 90 4 81 3 -15 27 -24 55 -19 4 0 8 -9 8 -22 1 -18 3 -16 9 8
l8 30 1 -27 c0 -16 5 -28 10 -28 5 0 18 -17 28 -37 11 -25 26 -39 41 -41 18
-3 22 -10 22 -43 0 -28 -4 -39 -15 -39 -21 0 -19 -36 2 -44 13 -5 14 -9 5 -15
-8 -5 0 -11 23 -18 19 -6 33 -7 29 -2 -3 5 -13 9 -22 10 -10 0 -12 3 -5 6 7 2
23 -3 35 -11 12 -9 17 -16 10 -16 -6 0 -12 -8 -12 -19 0 -14 -6 -17 -25 -13
-15 2 -25 0 -25 -7 0 -7 4 -10 9 -7 5 4 12 0 14 -6 4 -10 6 -10 6 0 1 7 6 10
11 7 6 -4 18 -1 26 6 12 10 13 9 8 -5 -3 -9 -12 -16 -19 -16 -8 0 -11 -8 -8
-20 5 -18 0 -20 -35 -20 -23 0 -44 5 -47 10 -3 6 -19 10 -34 10 -26 0 -28 -3
-30 -50 l-2 -50 76 0 c68 0 75 2 75 20 0 15 7 20 30 20 25 0 30 5 39 37 6 20
7 40 2 43 -4 3 -10 20 -13 37 -3 24 -1 33 10 33 15 0 14 9 -2 91 l-6 25 90 3
c73 2 90 0 90 -12 0 -8 12 -17 26 -20 18 -3 24 -1 20 9 -3 7 -1 16 4 19 6 4
10 -4 10 -16 0 -16 5 -20 19 -16 14 3 18 1 14 -9 -4 -10 0 -12 11 -8 9 3 16 2
16 -4 0 -5 -13 -8 -30 -7 -16 1 -27 -1 -25 -5 3 -5 0 -10 -7 -12 -9 -3 -9 -6
0 -12 7 -4 12 -3 12 3 0 6 7 8 15 5 8 -4 12 -10 9 -15 -3 -5 6 -9 20 -9 24 0
25 1 21 63 -3 34 -5 74 -6 89 -1 25 -5 28 -38 27 -33 -1 -34 -2 -11 -9 17 -6
2 -8 -52 -9 -63 -1 -78 2 -78 14 0 12 -13 15 -60 15 -47 0 -60 3 -60 15 0 10
10 15 30 15 17 0 30 -5 30 -12 0 -9 3 -9 9 1 5 8 16 11 25 8 10 -4 19 -1 22 8
5 12 25 15 85 15 43 0 79 4 79 9 0 5 9 11 20 14 12 3 20 14 20 26 0 18 -6 21
-39 21 -21 0 -52 3 -68 6 -25 5 -29 10 -25 31 3 15 -1 29 -9 34 -10 6 -10 9
-1 9 6 0 12 9 12 20 0 11 5 21 10 21 6 1 16 2 23 3 15 1 23 76 8 76 -16 0 -14
70 2 70 6 0 4 5 -6 11 -9 6 -14 15 -11 21 4 6 0 15 -7 20 -10 7 -9 8 6 4 11
-3 32 -8 47 -11 22 -6 28 -13 30 -40 3 -31 5 -32 21 -20 14 10 19 28 20 73 l2
60 48 5 c27 2 52 9 56 15 4 7 35 11 77 10 39 -1 76 2 82 6 7 4 12 2 12 -5 0
-7 2 -10 5 -7 3 3 2 13 -1 23 -5 13 -14 15 -36 11 -21 -4 -27 -2 -22 7 6 9 3
8 -8 -1 -14 -11 -18 -11 -25 0 -5 8 -28 13 -56 14 -51 0 -68 13 -60 44 3 12
18 19 51 23 56 7 102 27 102 45 0 6 -9 12 -21 12 -17 0 -20 5 -17 33 2 26 0
31 -14 29 -10 -2 -18 1 -18 7 0 5 -9 7 -20 4 -16 -4 -20 0 -20 17 0 14 8 24
21 27 12 4 18 11 15 20 -3 8 -6 30 -6 48 0 29 -4 34 -31 40 -18 4 -35 3 -42
-4 -14 -14 -67 -15 -67 -1 0 6 -11 10 -25 10 -27 0 -26 -4 -30 125 -3 120 -5
127 -20 121 -13 -4 -14 1 -9 34 5 31 3 40 -8 40 -8 0 -19 18 -26 45 -16 60
-15 65 9 65 11 0 18 4 15 9 -4 5 2 8 11 7 20 -3 31 -33 32 -90 1 -30 4 -37 17
-32 9 3 18 6 20 6 2 0 4 7 4 15 0 8 4 15 8 15 4 0 6 15 4 34 -2 18 1 37 7 40
6 4 11 18 11 31 0 18 -4 23 -15 19 -8 -4 -15 -13 -15 -21 0 -12 -2 -12 -16 1
-8 9 -22 16 -30 16 -8 0 -14 9 -14 20 0 15 -7 20 -25 20 -17 0 -25 6 -25 18 0
15 -11 17 -85 18 -82 0 -85 -1 -85 -23 0 -13 -5 -23 -11 -23 -5 0 -8 -4 -4 -9
3 -6 -4 -15 -15 -21 -13 -7 -20 -7 -20 0 0 5 -11 10 -25 10 -14 0 -25 4 -25
10 0 5 -3 9 -7 9 -29 -5 -45 2 -39 17 5 14 4 15 -8 5 -12 -10 -21 -9 -43 3
-15 8 -24 15 -20 16 5 0 17 -5 28 -10 13 -7 19 -7 19 0 0 5 16 10 35 10 19 0
35 4 35 9 0 4 15 12 33 17 38 11 47 42 22 81 -14 21 -15 29 -5 48 19 35 8 49
-39 51 -24 1 -48 7 -54 13 -6 6 -16 7 -28 1 -22 -12 -49 -3 -49 16 0 11 4 12
19 4 27 -14 31 -13 31 11 0 11 4 18 9 15 7 -5 21 14 21 28 0 2 -18 16 -40 31
l-40 28 0 72 0 72 -55 1 c-52 0 -55 -1 -55 -24 0 -16 -4 -23 -11 -18 -9 5 -10
-3 -5 -30 6 -33 5 -36 -16 -37 -17 -1 -18 -3 -5 -6 9 -2 17 -10 18 -16 2 -39
7 -64 14 -79 4 -11 3 -18 -4 -18 -6 0 -11 -16 -11 -35 0 -31 -3 -34 -22 -31
-13 3 -28 5 -35 5 -6 1 -14 10 -18 20 -4 12 -12 18 -21 14 -9 -3 -14 1 -14 11
0 9 -7 19 -15 22 -21 9 -21 100 1 108 8 3 12 10 9 16 -4 6 -10 8 -15 5 -4 -3
-10 4 -13 15 -6 23 -27 27 -27 5 0 -8 -5 -15 -11 -15 -5 0 -7 5 -4 11 4 6 -2
5 -14 -3 -12 -7 -21 -17 -21 -21 0 -5 -6 -7 -14 -4 -9 4 -16 -3 -19 -19 -3
-16 0 -24 9 -24 18 0 18 -14 -1 -30 -8 -7 -15 -18 -14 -24 1 -6 1 -28 0 -48
-1 -31 -5 -38 -21 -38 -11 0 -20 -7 -20 -15 0 -8 -9 -19 -19 -25 -17 -8 -20
-6 -23 13 -2 15 -11 23 -28 25 -14 2 -32 6 -40 9 -8 3 -21 5 -27 4 -7 -1 -13
5 -13 14 0 14 -7 16 -40 11 -35 -5 -40 -3 -40 15 0 18 -4 20 -29 14 -17 -3
-38 -2 -48 3 -23 13 -73 4 -73 -13 0 -10 -22 -14 -80 -17 -59 -2 -80 0 -80 10
0 6 -5 12 -11 12 -5 0 -23 15 -40 32 -16 18 -29 26 -29 19 0 -27 -42 -51 -87
-51 -36 0 -43 3 -43 20 0 11 -7 20 -15 20 -8 0 -15 6 -15 14 0 13 -28 26 -57
26 -11 0 -30 -64 -25 -82 1 -5 -16 -8 -38 -8 -22 0 -40 5 -40 10 0 6 -38 10
-95 10 -95 0 -95 0 -95 25 0 24 -3 25 -60 25 -54 0 -60 2 -60 20 0 20 -6 21
-92 20 -94 -1 -158 -14 -158 -31 0 -5 -10 -9 -22 -9 -35 0 -45 -12 -46 -49 0
-18 -5 -38 -11 -44 -14 -14 -41 -1 -41 22 0 11 -6 21 -12 24 -9 3 -7 10 7 21
19 14 15 15 -57 16 -43 0 -78 -4 -78 -9 0 -5 5 -11 12 -13 6 -2 12 -12 14 -21
2 -13 -5 -17 -32 -17 -19 0 -34 -4 -34 -9 0 -5 -11 -11 -25 -13 -17 -4 -25 -1
-25 9 0 8 -5 11 -10 8 -6 -3 -10 -2 -10 4 0 6 -11 13 -25 17 -14 3 -25 10 -25
15 0 5 -27 9 -60 9 l-60 0 -1 -32 c-1 -18 -1 -36 0 -40 0 -4 -41 -5 -92 -2
-50 4 -123 7 -160 7 -48 2 -70 6 -77 17 -6 9 -10 10 -10 3 0 -8 -8 -9 -27 -3
-52 15 -63 22 -63 41 0 10 -9 23 -19 29 -27 14 -28 14 -23 -20 3 -22 0 -30
-11 -30 -29 0 -68 23 -63 37 3 7 1 13 -4 13 -6 0 -10 -4 -10 -10 0 -18 -22
-11 -27 9 -3 11 -13 21 -24 24 -10 3 -19 12 -19 21 0 12 -10 16 -35 16 -26 0
-35 -4 -35 -16 0 -13 -6 -15 -27 -9 -16 4 -49 9 -75 12 l-48 5 0 -31 c0 -29
-2 -31 -40 -31 -27 0 -40 -4 -40 -13 0 -16 -59 -43 -112 -52 -23 -3 -38 -12
-38 -20 0 -7 -25 -22 -57 -32 -44 -15 -59 -25 -61 -41 -2 -12 1 -22 7 -22 6 0
11 -4 11 -9 0 -5 -22 -12 -50 -16 -40 -6 -50 -11 -50 -26 0 -16 -7 -19 -45
-19 -33 0 -45 4 -45 15 0 12 -13 15 -55 15 -48 0 -55 3 -55 19 0 12 8 21 23
24 12 2 3 5 -20 6 -30 1 -43 5 -43 15 0 9 7 12 20 9 14 -4 20 0 20 12 0 15 -6
16 -37 9 -21 -4 -57 -8 -80 -8 -22 -1 -45 -4 -49 -8 -4 -5 -20 -8 -36 -8 -15
0 -28 -4 -28 -10 0 -5 -18 -10 -40 -10 -28 0 -40 -4 -40 -14 0 -8 -7 -16 -15
-20 -8 -3 -15 -2 -15 3 0 4 -20 7 -45 6 -31 -1 -45 3 -47 13 -2 10 -19 15 -56
16 -47 1 -54 -1 -59 -22 -4 -17 -15 -24 -44 -28 -36 -6 -39 -9 -39 -40 0 -30
-3 -34 -25 -34 -18 0 -25 5 -25 20 0 11 -7 20 -15 20 -9 0 -18 7 -21 15 -4 8
-12 15 -19 15 -8 0 -16 8 -18 18 -4 16 -5 16 -6 0 -2 -26 -98 -26 -109 -1 -6
15 -21 18 -81 19 -51 1 -76 5 -82 15 -6 10 -9 10 -9 2 0 -9 -21 -13 -70 -13
-40 0 -70 4 -70 10 0 6 -7 10 -15 10 -8 0 -15 5 -15 10 0 6 -9 10 -20 10 -13
0 -20 7 -20 19 0 23 -17 31 -53 24 -28 -6 -36 -18 -15 -25 10 -4 8 -9 -3 -21
-9 -9 -19 -13 -23 -10 -3 4 -6 -6 -6 -20 0 -24 -4 -27 -35 -27 -27 0 -35 4
-35 18 0 10 -5 23 -10 28 -7 7 -7 19 -2 35 5 13 6 34 1 46 -8 22 -13 23 -128
23 -74 0 -121 -4 -123 -10 -2 -7 -19 -5 -48 6 -25 9 -60 16 -77 15 -21 0 -33
4 -33 13 0 7 -7 19 -15 26 -8 7 -15 22 -15 34 -1 21 -37 69 -57 77 -18 7 -98
84 -122 118 -12 17 -26 29 -31 26 -11 -7 -40 23 -40 41 0 8 -7 14 -15 14 -8 0
-15 -9 -15 -20 0 -26 -30 -26 -37 0 -3 11 -13 20 -23 20 -10 0 -20 9 -23 20
-3 11 -1 20 4 20 5 0 9 5 9 11 0 5 -5 7 -10 4 -5 -3 -10 1 -10 9 0 9 -4 16
-10 16 -5 0 -10 18 -10 40 0 33 -3 40 -20 40 -11 0 -20 -6 -20 -14 0 -8 -10
-13 -25 -13 -14 0 -25 4 -25 9 0 5 -7 16 -15 25 -8 8 -13 19 -10 24 4 5 -3 9
-13 9 -13 0 -21 -9 -24 -25 -4 -17 -1 -25 8 -25 8 0 11 -6 8 -15 -4 -8 -1 -15
4 -15 6 0 12 -10 14 -22 2 -13 9 -22 16 -21 7 2 12 -8 12 -22 0 -14 -4 -25 -9
-25 -5 0 -8 -11 -7 -25 1 -17 11 -29 38 -42 24 -11 38 -25 38 -37 0 -16 -6
-18 -47 -13 -26 3 -49 10 -51 16 -8 24 -40 11 -47 -19 -5 -21 -13 -30 -26 -30
-11 0 -18 -4 -15 -9 3 -5 -1 -12 -10 -15 -8 -3 -12 -10 -9 -16 3 -5 0 -7 -8
-4 -27 10 -28 -15 -2 -29 l26 -13 -21 -19 c-13 -12 -20 -14 -20 -5 0 7 -7 10
-15 6 -16 -6 -21 19 -6 28 5 4 8 14 6 24 -1 9 2 25 7 34 6 13 5 16 -6 12 -8
-3 -16 2 -18 12 -3 17 -4 17 -20 0 -10 -10 -23 -14 -30 -10 -7 4 -10 4 -6 -1
4 -4 3 -16 -3 -26 -7 -14 -6 -19 2 -19 8 0 8 -4 -1 -15 -13 -16 -7 -19 30 -16
8 0 5 -4 -7 -11 -29 -14 -30 -28 -2 -28 12 0 17 -4 14 -11 -4 -6 -14 -8 -23
-4 -9 3 -14 3 -10 0 3 -4 -2 -15 -13 -26 -22 -22 -89 -27 -89 -6 0 7 -9 13
-19 14 -12 1 -18 -3 -15 -11 5 -14 -38 -40 -56 -34 -9 3 -8 9 4 21 16 16 16
17 0 17 -13 0 -14 3 -4 15 10 13 9 15 -8 15 -12 0 -27 6 -34 13 -13 14 -58 11
-58 -4 0 -5 -30 -9 -66 -9 -49 0 -65 3 -61 13 3 9 -26 13 -125 16 -112 2 -132
5 -149 22 -10 10 -30 19 -44 19 -14 0 -25 5 -25 10 0 11 -83 14 -94 3 -4 -4
-45 -6 -91 -5 -92 3 -89 5 -85 -55 1 -27 -2 -33 -18 -33 -14 0 -22 9 -27 30
-5 22 -12 30 -29 30 -12 0 -27 -5 -34 -12 -9 -9 -12 -7 -12 10 0 13 -6 22 -16
22 -8 0 -12 -4 -9 -10 3 -5 -1 -10 -9 -10 -9 0 -21 -9 -28 -20 -10 -15 -23
-20 -53 -19 -23 0 -33 3 -25 7 8 4 16 13 18 20 1 8 -2 11 -8 7 -5 -3 -21 6
-34 21 -22 26 -26 27 -62 17 -66 -20 -211 -24 -228 -7 -8 7 -24 14 -36 14 -11
0 -23 7 -26 15 -4 8 -12 15 -19 15 -7 0 -15 5 -17 11 -5 15 -61 15 -66 0 -2
-6 -12 -11 -23 -11 -10 0 -19 -4 -19 -9 0 -4 -11 -6 -25 -3 -16 3 -25 0 -25
-8 0 -14 -98 -4 -114 11 -6 5 -20 9 -33 9 -14 0 -41 17 -68 45 -43 42 -111 85
-136 85 -6 0 -25 11 -41 25 -18 16 -37 23 -48 20 -11 -3 -20 1 -24 10 -3 9
-11 13 -17 9 -8 -4 -9 -3 -5 5 4 6 13 8 19 4 8 -5 8 -2 0 9 -7 8 -9 19 -5 23
4 5 -1 5 -10 2 -12 -4 -16 -1 -13 12 2 12 -6 23 -22 30 -16 7 -23 17 -19 26 3
8 2 14 -2 14 -33 -5 -46 32 -17 48 13 8 12 13 -2 46 -10 21 -24 37 -34 37 -18
0 -22 16 -35 120 -4 30 -10 57 -15 60 -4 3 -10 23 -14 44 -6 32 -5 37 6 31 11
-7 12 -6 3 6 -9 11 -9 17 1 26 7 6 16 9 19 6 3 -4 6 -1 6 5 0 7 3 11 8 11 28
-5 32 4 32 76 0 62 -3 75 -16 75 -9 0 -14 6 -12 12 3 7 -1 19 -9 26 -17 18
-18 92 0 92 27 0 47 39 47 95 0 30 -4 55 -10 55 -5 0 -13 12 -16 26 -4 15 -15
35 -25 45 -21 21 -27 103 -9 114 12 8 13 45 1 45 -10 0 -1 103 10 111 11 7 7
89 -4 89 -16 0 -38 30 -31 42 14 24 49 58 59 58 6 0 24 29 41 65 20 44 26 65
17 65 -16 0 -16 4 -3 30 6 11 15 29 20 40 5 11 10 26 10 33 0 22 57 70 72 61
7 -4 10 -4 6 1 -4 4 -3 14 3 22 9 10 7 13 -7 13 -18 1 -18 1 1 16 11 8 20 20
20 27 0 7 10 12 21 13 12 1 26 4 33 8 6 4 11 0 11 -9 0 -12 5 -15 16 -11 9 3
18 6 20 6 2 0 4 8 4 18 0 10 9 25 20 35 11 9 20 24 20 32 0 8 5 15 10 15 6 0
10 9 10 20 0 15 7 20 25 20 14 0 25 4 25 9 0 8 74 31 99 31 6 0 11 -9 11 -19
0 -33 11 -51 31 -51 10 0 19 5 19 11 0 12 111 7 167 -7 27 -7 33 20 7 30 -12
5 -15 14 -10 37 6 31 6 31 -37 29 -23 -2 -52 -2 -65 -1 -21 1 -22 3 -9 27 11
21 22 27 55 29 28 2 42 -1 46 -11 3 -8 12 -14 21 -14 8 0 15 -4 15 -10 0 -5
11 -10 25 -10 30 0 32 -19 5 -48 -20 -21 -20 -22 -2 -22 11 0 31 11 46 25 21
20 38 25 77 25 48 0 49 -1 49 -30 0 -24 -4 -30 -22 -30 -12 0 -18 -3 -15 -7 4
-3 2 -12 -5 -20 -14 -18 -7 -24 40 -33 38 -7 62 5 62 30 0 6 8 14 18 17 9 4
23 13 30 20 24 23 52 16 58 -16 4 -17 14 -31 25 -34 16 -4 19 1 19 34 0 38 1
39 36 39 28 0 35 3 32 18 -3 13 -12 16 -37 14 -18 -1 -40 2 -49 8 -13 7 -9 8
16 4 28 -6 32 -4 32 15 0 16 6 21 25 21 20 0 25 -5 25 -24 0 -16 7 -26 23 -30
35 -9 77 -7 77 5 0 5 4 8 10 4 5 -3 20 -3 34 1 18 4 26 15 31 41 5 26 10 33
21 29 9 -3 18 -6 20 -6 2 0 4 -9 4 -20 0 -18 7 -20 75 -20 68 0 75 2 75 20 0
13 7 20 20 20 15 0 20 7 20 25 0 18 -5 25 -20 25 -11 0 -20 7 -20 15 0 12 -13
15 -60 15 -47 0 -60 -3 -60 -15 0 -12 -10 -15 -40 -13 -22 1 -40 7 -40 12 0
12 -46 36 -67 36 -7 0 -13 5 -13 10 0 6 -22 10 -50 10 -38 0 -50 -4 -50 -15 0
-8 -9 -15 -20 -15 -11 0 -20 7 -20 15 0 8 -9 15 -20 15 -28 0 -26 38 3 50 15
6 17 9 5 9 -9 1 -18 6 -20 12 -3 8 -24 10 -71 5 l-67 -8 0 -39 c0 -34 -3 -39
-27 -45 -16 -3 -44 -10 -63 -15 -51 -13 -60 -11 -60 12 0 12 8 23 20 26 26 7
27 43 1 43 -33 0 -51 11 -51 31 0 12 -7 19 -20 19 -13 0 -20 -7 -20 -20 0 -22
-20 -70 -37 -87 -6 -7 -22 -13 -35 -13 -28 0 -48 39 -46 91 2 47 -7 59 -43 59
-33 0 -53 -32 -38 -61 10 -19 0 -61 -12 -53 -5 3 -9 0 -9 -5 0 -13 -39 -14
-59 -2 -15 9 -19 56 -8 81 4 8 3 21 -2 29 -7 11 -15 11 -45 0 -20 -7 -36 -17
-36 -21 0 -4 -7 -8 -16 -8 -12 0 -15 -6 -10 -25 4 -17 2 -23 -6 -21 -7 3 -25
7 -40 10 -16 4 -28 13 -28 22 0 8 -8 18 -17 21 -31 12 -43 29 -30 42 8 8 4 11
-16 11 -17 0 -27 -5 -27 -14 0 -10 -15 -17 -45 -20 -25 -3 -65 -9 -90 -12 -32
-4 -57 0 -85 12 -35 16 -37 19 -22 30 15 12 13 13 -18 14 -23 0 -44 8 -62 25
-34 32 -52 32 -66 0 -9 -20 -17 -24 -39 -20 -42 7 -169 15 -245 14 -53 0 -68
3 -68 14 0 19 -129 31 -185 17 -22 -5 -53 -10 -69 -10 -25 0 -27 3 -22 25 6
23 3 25 -24 25 -20 0 -30 -5 -30 -15 0 -8 -7 -15 -15 -15 -8 0 -15 -4 -15 -10
0 -6 -32 -10 -75 -10 -43 0 -75 4 -75 10 0 6 -32 10 -75 10 -43 0 -75 -4 -75
-10 0 -6 -32 -10 -75 -10 -60 0 -75 3 -75 15 0 11 -11 15 -41 15 -31 0 -42 4
-46 18 -4 17 -17 18 -161 17 -108 -1 -157 -5 -160 -13 -5 -15 -42 -16 -42 -1
0 7 -11 8 -31 4 -22 -5 -34 -3 -40 6 -10 17 -142 16 -147 0 -5 -15 -43 -14
-41 2 2 6 -1 31 -5 55 -6 32 -12 42 -27 42 -10 0 -19 -4 -19 -10 0 -5 -7 -10
-15 -10 -10 0 -15 -10 -15 -30 0 -23 -4 -30 -20 -30 -11 0 -20 -7 -20 -15 0
-12 -13 -15 -60 -15 -44 0 -60 4 -60 14 0 7 -8 16 -19 19 -14 3 -17 11 -14 31
5 23 2 26 -21 26 -29 0 -37 -19 -8 -21 36 -2 -34 -17 -85 -18 -40 -1 -53 3
-53 14 0 9 -14 16 -37 20 -74 12 -138 28 -173 44 -47 21 -90 56 -90 72 -1 17
-71 63 -79 52 -3 -5 -17 -9 -31 -8 -20 0 -25 5 -26 25 -1 38 6 50 28 50 10 0
16 5 13 10 -3 6 -1 10 4 10 6 0 11 -4 11 -10 0 -5 7 -10 16 -10 8 0 13 4 10 9
-4 5 -1 11 5 13 16 5 -6 55 -25 55 -9 0 -19 -10 -22 -21 -7 -21 -7 -21 -14 -1
-4 11 -18 22 -31 25 -53 13 -65 103 -15 116 14 3 26 11 28 17 2 7 2 63 0 126
-3 98 -6 114 -21 118 -11 3 -23 23 -31 54 -8 27 -18 49 -22 49 -12 0 1 43 15
51 5 4 7 16 4 27 -2 12 0 23 7 25 7 2 16 -21 23 -62 l12 -66 -5 74 c-3 41 -5
114 -5 162 1 81 -1 87 -21 92 -28 8 -38 1 -39 -26 0 -12 -12 19 -28 69 -15 49
-38 112 -52 140 -23 46 -26 49 -64 49 -39 0 -40 -1 -43 -39 -2 -24 -11 -47
-23 -57 -10 -9 -19 -25 -19 -36 0 -11 -9 -28 -20 -38 -11 -10 -20 -28 -20 -40
0 -12 -11 -31 -25 -41 -14 -10 -25 -26 -25 -34 0 -9 -9 -22 -20 -30 -11 -8
-20 -21 -20 -30 0 -9 -9 -22 -20 -30 -11 -8 -20 -20 -20 -26 0 -15 -488 -504
-504 -504 -6 0 -18 -9 -26 -20 -8 -11 -21 -20 -30 -20 -9 0 -22 -9 -30 -20 -8
-11 -21 -20 -30 -20 -9 0 -22 -9 -30 -20 -8 -11 -21 -20 -30 -20 -9 0 -22 -9
-30 -20 -9 -13 -26 -20 -45 -20 -17 0 -41 -9 -53 -20 -13 -13 -35 -20 -60 -20
-24 0 -46 -7 -60 -20 -12 -11 -31 -20 -43 -20 -11 0 -34 -13 -49 -30 -22 -24
-37 -30 -67 -30 -27 0 -46 -6 -58 -20 -16 -17 -31 -20 -110 -20 -79 0 -94 -3
-110 -20 -18 -20 -31 -20 -2195 -20 -1391 0 -2179 3 -2186 10 -5 5 -70 11
-144 12 l-135 3 -3 2196 -2 2196 21 19 c21 19 71 19 2249 19 2043 0 2229 -1
2246 -16 12 -11 45 -18 92 -21 44 -3 79 -11 90 -20 9 -9 39 -19 66 -23 36 -5
57 -15 77 -36 22 -23 35 -29 71 -29 32 0 47 -5 58 -20 8 -11 26 -20 40 -20 14
0 32 -9 40 -20 10 -14 26 -20 50 -20 24 0 40 -6 50 -20 8 -11 26 -20 40 -20
17 0 38 -13 60 -35 18 -19 46 -37 61 -40 15 -4 33 -13 40 -21 6 -8 17 -14 23
-14 7 0 30 -18 51 -40 21 -22 48 -40 60 -40 12 0 55 -35 110 -90 54 -55 98
-90 110 -90 25 0 195 -168 195 -193 0 -27 166 -191 186 -183 9 3 22 2 29 -4
10 -8 23 -7 49 4 40 17 43 22 20 47 -17 19 -11 39 11 39 18 0 37 -34 29 -54
-3 -9 1 -22 9 -31 14 -13 16 -13 22 5 3 11 11 20 16 20 5 0 9 9 9 20 0 11 5
20 10 20 13 0 13 47 0 52 -6 2 -4 24 5 58 8 30 20 96 27 147 7 50 16 89 20 87
4 -3 8 3 9 13 8 145 8 183 0 183 -23 0 50 168 97 222 18 19 32 41 32 47 0 6
16 21 35 33 34 22 47 57 23 59 -7 0 4 9 25 18 20 10 35 20 32 22 -2 3 8 5 23
4 25 0 27 3 30 47 3 39 9 52 36 76 26 23 31 33 24 46 -14 24 -3 30 50 27 31
-1 28 -19 -5 -24 -16 -2 230 -5 545 -6 347 0 572 3 572 8 0 5 -10 12 -22 14
-13 2 13 4 57 4 44 0 70 -2 58 -4 -47 -9 -21 -23 42 -23 51 0 65 3 65 15 0 11
10 15 38 14 23 -1 28 -3 15 -6 -38 -7 -26 -23 17 -23 25 0 40 5 40 13 0 6 12
18 27 25 32 14 93 16 93 2 0 -5 7 -10 15 -10 8 0 15 -7 15 -15 0 -12 13 -15
60 -15 47 0 60 3 60 15 0 10 11 15 35 15 19 0 35 5 35 10 0 6 9 10 20 10 11 0
20 7 20 15 0 8 9 15 20 15 11 0 20 5 20 10 0 6 23 10 51 10 41 0 50 -3 45 -15
-3 -9 0 -15 9 -15 9 0 15 10 15 25 l0 25 120 0 c100 0 120 3 120 15 0 8 9 15
20 15 11 0 20 -6 20 -14 0 -10 16 -14 57 -14 32 0 59 -5 61 -11 6 -17 101 -13
119 5 14 13 14 17 2 25 -21 13 -76 22 -104 17 -14 -3 -25 -1 -25 3 0 5 20 9
45 9 33 0 45 4 45 15 0 8 9 15 20 15 13 0 20 7 20 20 0 11 7 20 15 20 8 0 15
7 15 15 0 8 9 15 20 15 14 0 21 -9 26 -37 8 -44 24 -63 53 -63 14 0 23 9 27
28 4 15 15 35 25 45 11 10 19 22 19 27 0 6 16 10 35 10 24 0 35 5 35 15 0 8 7
15 15 15 8 0 15 6 15 14 0 17 35 27 47 15 6 -6 17 -7 26 -3 13 5 17 19 17 66
0 37 -4 57 -10 53 -5 -3 -10 1 -10 10 0 11 -5 15 -15 11 -28 -10 -45 5 -45 41
l0 34 -151 -2 c-134 -3 -152 -1 -160 14 -6 9 -17 17 -24 17 -11 0 -15 12 -15
40 0 30 4 40 16 40 9 0 18 9 21 20 3 11 12 20 19 20 8 0 14 9 14 21 0 15 5 20
23 17 20 -3 22 1 20 35 -1 20 1 37 6 37 4 0 6 14 3 30 -2 17 -10 30 -18 30 -8
0 -14 4 -14 9 0 4 -11 6 -25 3 -14 -2 -25 0 -25 6 0 5 -18 12 -40 14 -38 3
-40 2 -40 -24 0 -23 4 -28 25 -28 14 0 25 -3 25 -8 0 -4 14 -13 31 -21 29 -13
38 -47 11 -45 -6 1 -30 2 -52 3 -28 1 -40 5 -40 16 0 16 -30 35 -57 35 -10 0
-31 -11 -47 -25 -39 -33 -96 -33 -96 2 0 12 5 23 10 23 6 0 10 7 10 15 0 24
-23 65 -36 65 -16 0 -29 61 -20 95 4 14 11 25 17 25 13 0 69 58 69 71 0 5 6 9
14 9 8 0 15 14 18 34 l4 34 -118 7 c-91 6 -118 10 -118 21 0 10 -14 14 -47 14
-56 0 -78 -11 -70 -34 5 -12 0 -16 -23 -16 l-30 0 0 65 c0 62 1 65 24 65 13 0
26 7 30 15 3 8 15 15 26 15 11 0 28 9 37 20 10 11 25 20 35 20 27 0 23 37 -4
42 -13 2 -83 4 -155 3 -120 0 -133 2 -133 17 0 14 8 18 35 18 24 0 35 5 35 15
0 8 9 15 20 15 15 0 20 7 20 25 0 18 -5 25 -20 25 -13 0 -20 7 -20 20 0 11 7
20 15 20 8 0 15 7 15 15 0 12 -18 15 -100 15 l-100 0 0 40 c0 38 2 40 30 40
21 0 30 -5 30 -16 0 -14 15 -15 114 -12 108 3 115 4 120 25 9 35 -3 53 -38 53
-61 0 -76 9 -76 46 0 27 4 34 20 34 13 0 20 7 20 19 0 14 -5 18 -20 14 -16 -4
-20 0 -20 21 0 16 -5 26 -15 26 -10 0 -15 -10 -15 -29 0 -39 -9 -61 -26 -61
-9 0 -14 -12 -14 -34 0 -26 -5 -35 -22 -40 -37 -9 -90 -7 -83 4 3 6 -1 7 -9 4
-14 -5 -16 5 -16 70 l0 76 -50 0 c-43 0 -50 3 -50 20 0 13 -7 20 -20 20 -13 0
-20 7 -20 20 0 17 -7 20 -40 20 -36 0 -40 3 -40 25 0 22 -4 25 -34 25 -44 0
-50 17 -42 119 4 51 3 69 -4 56 -7 -15 -8 -9 -4 20 l6 41 -41 -4 c-36 -4 -41
-2 -41 17 0 14 -6 21 -20 21 -17 0 -20 7 -20 39 0 39 -1 40 -37 43 -36 3 -38
5 -38 38 l0 35 218 -2 c203 -3 218 -1 215 15 -2 12 -14 18 -38 19 -202 14
-200 14 -200 34 0 12 -7 19 -20 19 -13 0 -20 -7 -20 -20 0 -18 -7 -20 -60 -20
l-60 0 0 40 c0 33 -3 40 -20 40 -16 0 -20 7 -20 33 0 51 11 77 31 77 11 0 19
5 19 10 0 6 30 10 69 10 63 0 69 2 75 23 3 12 6 25 6 30 0 4 -34 7 -75 7 l-75
0 0 40 c0 39 1 40 35 40 28 0 35 4 35 20 0 11 5 20 10 20 6 0 10 7 10 15 0 8
7 15 15 15 8 0 15 5 15 10 0 6 6 10 14 10 8 0 18 9 21 20 4 13 15 20 31 20 13
0 24 5 24 10 0 6 7 10 15 10 13 0 15 14 13 83 l-3 82 -37 3 -38 3 0 -45 0 -46
-160 0 -160 0 0 -35 c0 -24 -5 -35 -15 -35 -10 0 -15 11 -15 35 0 24 5 35 15
35 12 0 15 13 15 60 l0 60 45 0 44 0 3 68 3 67 106 -3 106 -3 7 62 c11 105 14
99 -54 99 -47 0 -60 3 -60 15 0 8 -9 15 -20 15 -15 0 -20 7 -20 25 0 23 4 25
45 25 33 0 45 4 45 15 0 8 -9 15 -20 15 -11 0 -20 3 -20 8 0 8 42 37 51 35 4
-1 9 15 13 36 3 21 13 44 21 51 17 14 20 80 4 80 -7 0 -22 -11 -35 -25 -16
-18 -34 -25 -59 -25 -28 0 -35 -4 -35 -20 0 -11 -7 -20 -15 -20 -10 0 -15 -11
-15 -35 0 -34 -1 -35 -40 -35 -43 0 -49 9 -25 34 8 8 18 29 21 45 4 17 13 31
20 31 8 0 14 9 14 20 0 11 -7 20 -15 20 -10 0 -15 11 -15 35 0 28 4 35 19 35
19 0 37 42 26 60 -14 22 -43 10 -50 -21 -10 -45 -36 -68 -66 -57 -13 5 -32 7
-41 4 -10 -2 -21 0 -24 5 -3 5 -10 7 -15 4 -5 -4 -9 11 -9 32 0 27 6 42 19 50
31 20 33 203 2 203 -13 0 -31 -24 -31 -42 0 -10 -4 -18 -10 -18 -5 0 -10 -12
-10 -27 0 -53 -20 -103 -40 -103 -10 0 -20 5 -22 12 -2 6 -24 14 -49 17 -41 6
-44 8 -47 39 -3 33 -3 34 27 27 63 -14 92 20 54 65 -21 24 -41 26 -49 5 -7
-16 -40 -21 -46 -6 -2 5 -19 12 -39 16 -30 6 -37 3 -43 -12 -13 -38 -32 -58
-48 -55 -10 2 -18 8 -18 13 0 5 -6 9 -14 9 -7 0 -19 14 -26 30 -7 17 -18 30
-25 30 -7 0 -15 7 -19 15 -3 8 -12 15 -20 15 -11 0 -16 14 -18 46 -3 43 -5 47
-32 50 -30 3 -47 -9 -59 -38 -4 -12 -17 -18 -37 -18 -25 0 -30 4 -30 24 0 44
10 56 46 56 33 0 34 1 34 40 0 35 -3 40 -27 46 -16 3 -35 8 -43 11 -8 4 -58 7
-111 7 -75 1 -99 5 -112 18 -23 22 -21 38 3 38 21 0 37 38 26 65 -11 29 -36
17 -36 -18 0 -27 -6 -36 -27 -46 -16 -8 -36 -17 -45 -22 -26 -13 -29 -11 -24
14 13 69 18 76 52 83 19 3 34 12 34 20 0 8 9 14 20 14 11 0 20 4 20 9 0 5 6 9
13 8 45 -1 67 5 67 18 0 8 -9 15 -20 15 -13 0 -20 7 -20 20 0 16 -7 20 -35 20
-34 0 -35 -1 -35 -40 l0 -40 -65 0 -65 0 0 115 0 115 -95 0 c-78 0 -95 -3 -95
-15 0 -9 -9 -15 -25 -15 -16 0 -25 6 -25 15 0 8 -4 15 -10 15 -5 0 -10 -7 -10
-15 0 -9 -9 -15 -25 -15 -18 0 -25 5 -25 20 0 11 -7 20 -15 20 -10 0 -15 11
-15 35 0 19 -4 36 -10 36 -64 8 -80 28 -80 97 0 25 4 32 20 32 14 0 20 7 20
21 0 16 5 20 20 16 16 -4 20 0 20 19 0 17 6 24 19 24 13 0 20 10 25 31 10 51
8 57 -19 51 -16 -3 -25 -11 -25 -22 0 -13 -6 -17 -20 -13 -17 5 -20 0 -20 -26
0 -24 -4 -31 -20 -31 -11 0 -20 -6 -20 -14 0 -9 -12 -16 -32 -18 -29 -3 -33
-7 -34 -33 -2 -69 -4 -75 -24 -75 -11 0 -20 5 -20 10 0 6 -7 10 -15 10 -8 0
-15 5 -15 10 0 6 -18 10 -40 10 -29 0 -40 4 -40 15 0 9 -9 15 -25 15 -18 0
-25 5 -25 20 0 11 -4 20 -9 20 -5 0 -11 18 -15 40 -4 25 -12 40 -20 40 -8 0
-17 6 -19 13 -4 10 -6 10 -6 0 -1 -7 -7 -13 -15 -13 -8 0 -17 6 -19 13 -4 10
-6 10 -6 0 -1 -15 -41 -18 -41 -4 0 5 -9 7 -19 4 -25 -6 -36 41 -22 93 5 20 7
49 4 65 -5 24 -2 29 14 29 17 0 21 8 26 53 4 38 1 55 -9 63 -8 6 -14 25 -14
43 0 26 -4 31 -25 31 -15 0 -25 -6 -25 -14 0 -7 -9 -16 -20 -19 -15 -4 -20
-14 -20 -41 0 -24 -5 -36 -14 -36 -8 0 -17 -15 -20 -35 -6 -29 -11 -35 -33
-35 -20 0 -24 4 -20 20 3 11 1 20 -4 20 -28 0 -81 112 -65 138 3 5 -5 7 -19 4
-14 -2 -25 -11 -25 -18 0 -10 -14 -14 -51 -14 -42 0 -52 3 -56 20 -5 20 -33
29 -33 10 0 -5 -16 -10 -35 -10 -34 0 -72 -15 -88 -35 -6 -6 -10 -6 -14 3 -2
6 -11 12 -19 12 -8 0 -14 4 -14 9 0 37 -93 56 -124 26 -16 -17 -83 -20 -88 -5
-3 11 -270 22 -533 22 -82 0 -142 2 -132 5 10 3 17 13 16 26 0 15 -2 17 -6 7
-12 -30 -39 -39 -115 -40 -71 0 -78 -2 -78 -20 0 -17 7 -20 40 -20 22 0 40 -4
40 -10 0 -6 -42 -10 -106 -10 -58 0 -113 -4 -123 -9 -12 -7 -26 -6 -42 3 -32
16 -46 3 -41 -39 4 -32 3 -32 -49 -38 -33 -4 -56 -3 -60 4 -4 6 -20 8 -43 4
-28 -6 -36 -4 -36 8 0 15 54 32 71 21 5 -3 9 2 9 10 0 9 9 16 20 16 11 0 19 3
19 8 -3 20 2 32 16 32 15 0 22 39 8 41 -98 10 -143 3 -143 -21 0 -13 5 -17 20
-13 13 4 20 0 20 -10 0 -11 -18 -16 -75 -22 -60 -5 -75 -10 -75 -23 0 -14 -10
-17 -48 -17 -46 0 -48 1 -44 27 3 21 0 28 -12 28 -55 0 51 102 249 239 50 34
115 80 145 102 30 21 85 60 123 85 37 25 67 47 67 50 0 10 -29 2 -68 -21z
m245 -457 c-3 -8 -6 -5 -6 6 -1 11 2 17 5 13 3 -3 4 -12 1 -19z m653 -8 c0
-13 -7 -20 -20 -20 -13 0 -20 7 -20 20 0 13 7 20 20 20 13 0 20 -7 20 -20z
m-1493 -92 c-3 -28 -8 -53 -12 -56 -9 -10 -95 -8 -95 2 0 4 -6 6 -12 3 -60
-22 -63 -19 -23 20 75 72 109 88 118 56 3 -11 5 -7 6 10 1 18 5 26 12 21 7 -4
9 -25 6 -56z m1866 25 c-22 -3 -33 -10 -33 -21 0 -13 -3 -13 -12 -4 -17 17 7
32 47 30 l30 -1 -32 -4z m104 1 c-3 -3 -12 -4 -19 -1 -8 3 -5 6 6 6 11 1 17
-2 13 -5z m126 -6 c23 -11 26 -17 21 -43 -4 -16 -13 -34 -20 -38 -20 -12 -17
-37 5 -37 11 0 21 -9 25 -22 8 -33 7 -50 -3 -44 -5 3 -11 -1 -15 -9 -6 -17
-36 -21 -36 -5 0 6 -15 8 -37 4 -28 -4 -44 -1 -59 12 l-20 17 23 23 c30 30 32
68 3 59 -17 -5 -20 -2 -20 22 1 62 65 92 133 61z m-357 -33 c9 -21 -14 -45
-42 -45 -18 0 -24 5 -24 23 0 13 3 27 7 30 12 13 54 7 59 -8z m-1956 -100 c0
-8 -2 -15 -4 -15 -2 0 -6 7 -10 15 -3 8 -1 15 4 15 6 0 10 -7 10 -15z m460 5
c0 -5 -9 -10 -20 -10 -11 0 -20 5 -20 10 0 6 9 10 20 10 11 0 20 -4 20 -10z
m2000 -26 c0 -31 -3 -35 -22 -32 -18 2 -24 11 -26 36 -3 29 -1 32 22 32 23 0
26 -4 26 -36z m-723 -76 c-3 -7 -5 -2 -5 12 0 14 2 19 5 13 2 -7 2 -19 0 -25z
m676 -37 c27 -11 37 -22 37 -38 0 -14 -6 -23 -15 -23 -8 0 -15 -4 -15 -10 0
-5 -20 -10 -45 -10 l-45 0 0 56 c0 62 -2 61 83 25z m307 -190 c0 -5 9 -13 20
-16 11 -3 20 -12 20 -20 0 -8 9 -17 20 -20 22 -7 28 -35 8 -36 -7 0 -26 -2
-43 -5 -16 -2 -45 -2 -63 1 -32 6 -33 8 -26 38 10 48 23 67 44 67 11 0 20 -4
20 -9z m-325 -23 c14 7 41 12 60 12 28 0 35 -4 35 -20 0 -18 -7 -20 -64 -20
-66 0 -149 24 -110 32 10 2 27 0 36 -6 11 -7 25 -6 43 2z m564 -36 c14 -26 2
-62 -20 -62 -11 0 -19 5 -19 10 0 6 -3 9 -7 8 -12 -3 -53 13 -53 20 0 10 52
40 72 41 10 1 22 -7 27 -17z m-279 -127 c0 -8 -7 -15 -15 -15 -16 0 -20 12 -8
23 11 12 23 8 23 -8z m208 -2 c-2 -10 -13 -19 -26 -21 -17 -3 -22 2 -22 17 0
16 6 21 26 21 19 0 25 -5 22 -17z m386 -36 c3 4 5 -29 4 -73 -1 -43 -3 -62 -5
-41 -3 28 -9 37 -23 37 -14 0 -19 9 -21 44 -4 41 -3 43 17 35 12 -4 25 -5 28
-2z m-464 -87 c0 -5 -11 -10 -25 -10 -14 0 -25 5 -25 10 0 6 11 10 25 10 14 0
25 -4 25 -10z m650 -269 c0 -35 -2 -38 -25 -33 -21 4 -25 10 -25 38 0 30 3 34
25 34 22 0 25 -4 25 -39z m123 -73 c4 -12 5 -23 3 -25 -6 -7 -96 -20 -101 -15
-13 13 -3 43 18 52 42 17 74 12 80 -12z m-265 -25 c2 -16 -2 -23 -12 -23 -10
0 -17 -9 -17 -22 -2 -23 -2 -23 -6 -1 -2 12 -11 27 -19 33 -26 22 -17 42 19
38 24 -2 33 -8 35 -25z m442 -1 c0 -15 -9 -18 -60 -17 -50 0 -60 3 -60 18 0
14 10 17 60 17 51 0 60 -3 60 -18z m-295 -41 c-9 -28 -55 -29 -55 -2 0 14 8
21 28 23 34 4 35 4 27 -21z m142 -13 c-3 -7 -5 -2 -5 12 0 14 2 19 5 13 2 -7
2 -19 0 -25z m34 -48 c5 0 9 -25 9 -55 l0 -55 -41 0 -41 0 7 36 c11 62 24 87
41 80 9 -3 20 -6 25 -6z m246 -182 c2 -21 0 -38 -4 -38 -4 0 -32 -3 -60 -6
-36 -4 -53 -3 -53 5 0 6 -9 11 -20 11 -16 0 -20 7 -20 34 l0 34 76 -1 77 -2 4
-37z m313 -13 c0 -28 -4 -35 -19 -35 -26 0 -33 13 -25 45 4 16 13 25 25 25 15
0 19 -7 19 -35z m-830 0 c0 -8 -9 -15 -20 -15 -11 0 -20 7 -20 15 0 8 9 15 20
15 11 0 20 -7 20 -15z m886 -50 c8 -20 -13 -45 -37 -45 -13 0 -19 7 -19 23 0
13 3 27 7 30 12 13 44 7 49 -8z m148 -61 c12 -32 5 -61 -19 -82 -29 -26 -41
-27 -61 -8 -15 15 -19 63 -6 82 15 24 78 30 86 8z m-584 -79 c0 -21 -5 -25
-30 -25 -31 0 -39 17 -18 38 22 22 48 14 48 -13z m-340 -29 c0 -36 -26 -58
-42 -34 -17 28 -4 68 23 68 15 0 19 -7 19 -34z m775 3 c7 -31 -10 -89 -26 -89
-12 0 -22 66 -15 95 9 35 33 31 41 -6z m262 -56 c13 -43 15 -57 5 -61 -6 -2
-12 -18 -12 -37 0 -52 -11 -95 -26 -95 -7 0 -14 -8 -16 -17 -2 -10 -3 41 -2
113 0 72 4 136 8 143 14 22 25 10 43 -46z m-387 -42 c0 -15 -9 -20 -37 -22
-60 -6 -83 0 -83 22 0 17 7 19 60 19 52 0 60 -2 60 -19z m133 -108 c-13 -2
-33 -2 -45 0 -13 2 -3 4 22 4 25 0 35 -2 23 -4z m95 -190 c3 -32 2 -33 -37
-33 -30 0 -41 4 -41 15 0 8 7 15 15 15 9 0 15 9 15 21 0 15 5 20 23 17 17 -2
23 -11 25 -35z m362 -1348 c0 -33 -2 -35 -35 -35 -33 0 -35 2 -35 35 0 33 2
35 35 35 33 0 35 -2 35 -35z m20 -195 c0 -5 16 -10 35 -10 19 0 35 -2 35 -4 0
-1 -5 -16 -10 -32 -9 -26 -15 -29 -58 -32 l-47 -3 0 46 c-1 40 2 45 22 45 13
0 23 -4 23 -10z m-520 -46 c0 -17 -22 -14 -28 4 -2 7 3 12 12 12 9 0 16 -7 16
-16z m705 -42 c-3 -8 -5 -21 -5 -29 0 -10 -6 -14 -20 -10 -14 4 -20 0 -20 -11
0 -10 -5 -24 -10 -32 -9 -13 -11 -13 -20 0 -7 11 -10 12 -10 2 0 -10 -3 -10
-15 2 -8 8 -15 21 -15 29 0 9 -4 17 -9 19 -5 2 -5 12 -1 23 6 17 17 20 69 20
47 0 60 -3 56 -13z m-2 -316 c7 -10 4 -93 -4 -101 -2 -1 -13 -5 -24 -7 -18 -3
-20 3 -23 65 -3 68 -3 69 20 61 13 -3 27 -12 31 -18z m183 -31 c-4 -22 -3 -35
4 -35 5 0 10 -9 10 -20 0 -11 -5 -20 -11 -20 -8 0 -9 -15 -5 -45 6 -40 5 -45
-12 -45 -17 0 -20 10 -26 81 -7 75 -6 82 15 100 30 26 32 24 25 -16z m49 -215
c3 -11 11 -20 16 -20 20 0 7 -30 -15 -36 -35 -8 -46 2 -46 42 0 27 4 34 19 34
11 0 23 -9 26 -20z m308 -110 c-4 -14 0 -20 11 -20 12 0 16 -10 16 -45 0 -47
-1 -48 -37 -39 -21 6 -23 13 -23 65 0 51 2 59 19 59 14 0 18 -5 14 -20z m387
-295 c0 -20 -5 -25 -25 -25 -20 0 -25 5 -25 25 0 20 5 25 25 25 20 0 25 -5 25
-25z m434 -291 c19 -7 21 -40 4 -46 -23 -9 -38 3 -38 28 0 25 7 28 34 18z
m-630 -20 c14 -36 7 -50 -27 -50 -31 0 -32 2 -29 33 3 27 9 33 27 33 13 0 26
-7 29 -16z m460 -50 c9 -3 16 -14 16 -24 0 -10 6 -21 13 -23 7 -3 5 -6 -5 -6
-10 -1 -18 -5 -18 -11 0 -5 -9 -10 -19 -10 -11 0 -21 -5 -23 -12 -7 -19 -38
-1 -38 22 0 13 7 20 19 20 12 0 21 9 25 25 7 27 7 28 30 19z m-466 -76 c-2
-22 -9 -34 -20 -36 -15 -3 -18 4 -18 32 0 30 4 36 21 36 17 0 20 -5 17 -32z
m242 -9 l0 -41 -52 6 c-77 8 -78 8 -78 23 0 7 -4 13 -10 13 -5 0 -10 9 -10 20
0 18 7 20 75 20 l75 0 0 -41z m-250 -103 c0 -19 6 -36 13 -39 24 -9 -44 -19
-81 -11 -22 4 -30 9 -19 11 12 3 17 14 17 39 0 32 2 34 35 34 33 0 35 -2 35
-34z m245 29 c-23 -8 -85 -10 -85 -3 0 4 21 8 48 7 26 0 43 -2 37 -4z m-600
-5055 c16 -7 13 -9 -17 -9 -21 -1 -38 4 -38 9 0 12 27 12 55 0z m375 -40 c0
-12 -27 -12 -55 0 -16 7 -13 9 18 9 20 1 37 -3 37 -9z m260 -34 c0 -9 -8 -16
-20 -16 -14 0 -20 7 -20 23 0 13 3 26 6 30 9 9 34 -19 34 -37z m1230 -155 c0
-10 -7 -24 -15 -31 -10 -9 -15 -9 -15 -1 0 6 -9 11 -20 11 -13 0 -20 7 -20 20
0 16 7 20 35 20 28 0 35 -4 35 -19z m78 -39 c3 -17 -2 -22 -17 -22 -16 0 -21
6 -21 26 0 33 33 30 38 -4z m-602 -50 c6 -4 14 -17 18 -29 6 -19 4 -23 -16
-23 -19 0 -24 6 -26 30 -2 30 4 36 24 22z m-1496 -50 c0 -5 -13 -21 -30 -37
-28 -27 -30 -27 -30 -8 0 12 7 29 16 37 16 17 44 22 44 8z m-1980 -17 c0 -8
-7 -15 -15 -15 -9 0 -12 6 -9 15 4 8 10 15 15 15 5 0 9 -7 9 -15z m-4983 -114
c98 -5 147 -12 159 -22 12 -9 56 -15 150 -19 126 -5 134 -6 161 -31 22 -21 41
-28 90 -32 42 -3 71 -12 89 -26 15 -12 34 -21 44 -21 9 0 25 -9 35 -20 10 -11
23 -20 30 -20 7 0 20 -9 30 -20 10 -11 22 -20 27 -20 13 0 198 -183 198 -196
0 -6 9 -19 19 -28 11 -10 22 -35 26 -56 4 -22 13 -44 20 -50 8 -7 17 -33 21
-58 3 -26 14 -55 23 -66 24 -27 24 -445 0 -472 -9 -11 -19 -43 -22 -72 -4 -30
-15 -64 -27 -79 -11 -14 -20 -32 -20 -40 0 -8 -9 -26 -20 -40 -11 -14 -20 -33
-20 -42 0 -22 -158 -177 -190 -186 -14 -4 -45 -26 -70 -50 -25 -24 -56 -46
-70 -50 -14 -4 -33 -14 -43 -23 -10 -9 -43 -18 -80 -20 -38 -3 -69 -11 -81
-21 -14 -12 -44 -17 -125 -19 -72 -3 -111 -8 -121 -18 -11 -9 -61 -15 -170
-20 -103 -5 -162 -12 -176 -21 -17 -11 -146 -13 -720 -11 l-699 3 -3 925 c-1
509 0 931 3 938 3 9 152 12 697 11 381 0 757 -4 835 -8z m4093 -6 c7 -4 10
-275 10 -803 0 -841 -1 -851 -45 -919 -28 -43 -95 -82 -193 -112 -127 -39
-170 -48 -332 -71 -122 -18 -180 -19 -615 -15 -416 5 -649 13 -785 30 -59 7
-234 68 -251 87 -9 10 -25 18 -37 18 -30 0 -112 102 -124 155 -3 16 -14 62
-22 101 -14 62 -16 164 -14 795 l3 724 314 -2 c172 -1 319 -4 327 -7 12 -5 14
-121 14 -732 0 -663 1 -729 17 -746 15 -17 47 -18 590 -18 l573 0 0 758 c0
417 3 762 8 767 8 9 546 0 562 -10z m1313 -16 c18 -13 65 -53 105 -91 41 -39
81 -68 93 -68 12 0 48 -26 83 -60 35 -33 71 -60 80 -60 10 0 51 -31 92 -68 41
-38 99 -82 129 -98 31 -15 70 -43 87 -61 18 -18 37 -33 44 -33 6 0 18 -7 25
-16 7 -9 21 -19 30 -23 10 -3 49 -36 88 -73 40 -39 79 -68 91 -68 11 0 45 -24
75 -55 53 -52 75 -66 75 -46 0 5 9 11 21 14 14 4 18 10 14 19 -6 10 -5 10 4 2
16 -14 51 -6 51 11 0 17 -23 25 -51 18 -15 -4 -20 -3 -15 5 5 8 -2 12 -20 12
-25 0 -26 1 -11 18 9 10 15 28 13 39 -4 17 0 21 15 18 17 -3 26 8 49 58 45 98
80 197 69 197 -6 0 -7 5 -4 10 3 6 1 10 -5 10 -22 0 20 58 51 69 18 6 29 16
26 23 -2 7 0 21 5 32 7 12 7 16 0 12 -14 -8 -4 63 11 82 6 7 20 12 31 10 23
-3 53 19 70 54 17 34 41 34 44 1 1 -15 8 -30 15 -35 9 -6 13 14 17 80 l5 87
231 0 c170 -1 236 -4 247 -13 8 -7 18 -29 22 -50 13 -60 17 -1014 5 -1026 -6
-6 -10 -135 -10 -357 0 -190 -3 -368 -6 -394 l-7 -47 -180 6 c-120 4 -184 3
-193 -4 -8 -8 -14 -8 -19 0 -13 21 -25 9 -25 -25 0 -22 -6 -38 -15 -41 -8 -4
-13 -10 -10 -14 3 -4 -3 -11 -12 -15 -10 -3 -19 -2 -21 3 -1 5 -17 6 -35 3
-24 -5 -33 -13 -35 -31 -5 -34 -16 -43 -41 -35 -15 4 -21 15 -21 36 0 21 -5
29 -17 30 -15 0 -15 2 2 8 16 7 13 9 -18 15 -20 4 -42 4 -48 0 -11 -7 -93 26
-84 34 5 5 -25 28 -64 50 -15 9 -21 10 -16 2 6 -9 2 -9 -14 -1 -11 7 -21 16
-21 21 0 6 -6 10 -13 10 -7 0 -18 9 -25 20 -9 16 -17 18 -30 11 -19 -11 -52 3
-52 22 0 7 -14 21 -30 32 -16 11 -30 25 -30 31 0 14 -78 77 -88 70 -10 -6 -37
15 -44 35 -3 8 -65 60 -137 114 -72 55 -131 105 -131 112 0 14 -36 36 -62 38
-10 1 -18 -2 -18 -7 0 -5 -9 -4 -19 2 -12 6 -18 18 -16 30 2 11 -2 20 -8 20
-9 0 -9 2 -1 8 14 8 16 62 3 62 -5 0 -9 6 -9 14 0 24 -43 34 -70 16 -13 -9
-13 -11 0 -20 10 -6 11 -10 3 -10 -7 0 -13 -7 -13 -15 0 -8 -7 -15 -16 -15
-10 0 -14 -6 -10 -15 8 -22 -26 -19 -53 4 -13 11 -20 25 -16 30 3 6 -2 11 -12
11 -14 0 -15 2 -4 9 10 6 5 11 -19 16 -23 5 -35 3 -41 -6 -6 -10 -9 -4 -9 19
0 21 -5 32 -15 32 -12 0 -14 -48 -15 -332 0 -226 -4 -336 -11 -345 -7 -8 -33
-13 -68 -13 -31 0 -62 -5 -67 -10 -7 -7 -79 -9 -195 -8 l-184 3 -3 319 -2 318
-25 -6 c-22 -6 -25 -3 -25 18 0 19 4 24 15 20 11 -5 13 -2 9 11 -4 9 -1 20 6
25 9 6 9 13 1 28 -13 25 -16 95 -6 145 7 32 5 37 -9 31 -12 -4 -16 0 -16 15 0
12 -4 21 -10 21 -5 0 -10 9 -10 20 0 11 -7 20 -15 20 -9 0 -15 9 -15 25 0 13
-5 36 -12 50 -9 20 -8 31 2 50 7 14 19 25 27 25 9 0 13 14 13 45 0 32 -4 45
-14 45 -22 0 -47 46 -53 98 -3 33 1 65 16 110 12 35 19 67 16 71 -2 5 9 27 25
50 29 40 50 52 50 30 0 -8 5 -8 15 1 12 10 15 40 15 153 l0 140 200 -6 c186
-6 203 -8 233 -28z m1008 -660 c8 -15 8 -24 0 -32 -14 -14 -57 25 -47 42 11
18 34 13 47 -10z m-894 -511 c-3 -8 -6 -5 -6 6 -1 11 2 17 5 13 3 -3 4 -12 1
-19z m310 -194 c-1 -13 -7 -27 -12 -31 -4 -4 -5 -2 -1 5 4 7 2 12 -6 12 -9 0
-9 3 2 10 10 6 11 10 3 10 -7 0 -13 7 -13 15 0 9 6 12 15 9 9 -4 14 -16 12
-30z m1266 -562 c15 -16 15 -19 -3 -30 -16 -10 -21 -9 -30 8 -20 37 5 53 33
22z m-119 -44 c-6 -10 -4 -10 8 0 20 16 28 4 17 -25 -10 -26 -49 -32 -49 -7 0
8 -4 12 -10 9 -5 -3 -10 1 -10 9 0 13 14 21 43 25 5 0 5 -5 1 -11z m1116 -18
c0 -5 -2 -10 -4 -10 -3 0 -8 5 -11 10 -3 6 -1 10 4 10 6 0 11 -4 11 -10z
m1337 -216 c-3 -3 -12 -4 -19 -1 -8 3 -5 6 6 6 11 1 17 -2 13 -5z m1073 -58
c0 -3 -4 -8 -10 -11 -5 -3 -10 -1 -10 4 0 6 5 11 10 11 6 0 10 -2 10 -4z
m-130 -106 c0 -5 -4 -10 -10 -10 -5 0 -10 5 -10 10 0 6 5 10 10 10 6 0 10 -4
10 -10z m5508 -17 c-10 -2 -28 -2 -40 0 -13 2 -5 4 17 4 22 1 32 -1 23 -4z
m1112 -113 c0 -5 7 -10 15 -10 15 0 20 -26 9 -54 -7 -19 -98 -23 -109 -6 -4 6
-16 10 -28 8 -18 -2 -22 2 -22 27 0 23 6 31 25 36 39 11 110 10 110 -1z
m-4907 -107 c-7 -2 -21 -2 -30 0 -10 3 -4 5 12 5 17 0 24 -2 18 -5z m4625 -99
c15 -4 22 -14 22 -30 0 -21 -5 -24 -34 -24 -26 0 -36 5 -41 20 -11 36 5 46 53
34z m592 -74 c0 -11 -4 -20 -10 -20 -5 0 -10 -13 -10 -30 0 -20 -5 -30 -15
-30 -9 0 -15 -9 -15 -25 0 -26 -31 -65 -52 -65 -6 0 -9 -3 -5 -6 3 -4 -4 -15
-16 -26 -15 -13 -17 -18 -6 -15 12 4 17 -1 17 -21 0 -15 -3 -29 -7 -32 -4 -3
-11 -23 -16 -45 -12 -48 -46 -61 -65 -25 -13 24 -6 70 10 70 6 0 10 29 10 64
0 55 3 66 19 71 12 3 21 19 25 40 5 26 12 35 26 35 14 0 22 11 30 40 10 37 13
40 45 40 28 0 35 -4 35 -20z m-496 -141 c4 6 16 11 28 11 18 0 20 -4 14 -32
-8 -40 -12 -44 -31 -28 -10 8 -15 9 -15 1 0 -21 -18 -11 -24 14 -8 30 2 54 14
35 5 -9 9 -9 14 -1z m562 -43 c1 -11 2 -34 3 -51 0 -16 -2 -60 -5 -97 l-6 -68
-32 0 c-17 0 -41 -3 -53 -6 -21 -6 -22 -3 -21 39 0 32 4 44 13 41 7 -3 14 5
17 20 3 14 1 26 -4 26 -9 0 -5 54 7 83 4 9 13 17 21 17 8 0 14 4 14 9 0 5 10
9 23 9 15 0 22 -7 23 -22z m-516 -71 c0 -21 -28 -31 -43 -16 -9 9 -8 14 3 21
22 14 40 12 40 -5z m464 -180 c-4 -9 3 -16 20 -21 20 -5 26 -12 26 -35 0 -25
4 -28 25 -27 17 2 25 8 25 20 0 19 8 22 35 12 13 -5 14 -8 3 -15 -10 -7 -9 -9
5 -9 9 0 17 5 17 10 0 6 11 10 25 10 14 0 25 -5 25 -11 0 -7 6 -17 14 -23 7
-6 17 -35 20 -63 6 -44 4 -53 -9 -53 -8 0 -15 4 -15 8 0 13 -34 11 -42 -2 -4
-6 -5 -34 -2 -62 l6 -50 -46 -3 c-46 -2 -46 -2 -46 31 0 53 -10 77 -28 71 -13
-3 -13 -1 2 11 11 9 18 16 15 17 -59 11 -109 -12 -86 -40 10 -11 9 -13 -3 -9
-22 7 -25 45 -3 51 10 3 2 4 -17 3 -21 -1 -40 4 -48 14 -8 8 -11 9 -7 3 4 -9
1 -11 -11 -6 -11 4 -13 8 -6 11 7 2 12 12 12 21 0 10 3 21 8 25 4 4 8 11 8 14
8 37 19 53 33 49 14 -3 16 2 13 24 -3 20 1 28 15 32 10 3 19 5 20 6 1 0 0 -6
-3 -14z m-179 -75 c-27 -12 -43 -12 -25 0 8 5 22 9 30 9 10 0 8 -3 -5 -9z
m-28 -25 c22 22 46 15 57 -18 11 -31 4 -41 -36 -51 -22 -5 -28 -2 -36 22 -8
20 -11 22 -11 8 -1 -11 -4 -17 -7 -14 -3 3 -2 23 3 44 5 29 8 33 11 16 3 -20
5 -21 19 -7z m-17 -155 l-8 -35 -1 45 c-1 27 3 40 8 35 6 -6 6 -25 1 -45z
m-170 -5 c0 -14 -4 -25 -9 -25 -5 0 -14 -13 -20 -30 -5 -16 -15 -30 -20 -30
-15 0 -14 17 2 24 10 5 10 7 0 12 -7 3 -13 21 -13 40 0 31 3 34 30 34 25 0 30
-4 30 -25z m250 11 c0 -7 -3 -28 -6 -45 -7 -34 -34 -43 -34 -11 0 11 -7 20
-15 20 -9 0 -15 9 -15 25 0 22 4 25 35 25 23 0 35 -5 35 -14z m-219 -23 c13
-16 12 -17 -3 -4 -17 13 -22 21 -14 21 2 0 10 -8 17 -17z m69 -27 c0 -3 -4 -8
-10 -11 -5 -3 -10 -1 -10 4 0 6 5 11 10 11 6 0 10 -2 10 -4z m-40 -10 c0 -3
-4 -8 -10 -11 -5 -3 -10 -1 -10 4 0 6 5 11 10 11 6 0 10 -2 10 -4z m44 -43 c3
-16 8 -52 12 -81 l6 -53 -33 3 c-32 3 -34 5 -37 48 -5 68 5 110 28 110 12 0
20 -9 24 -27z m-144 -87 c0 -16 -18 -31 -27 -22 -8 8 5 36 17 36 5 0 10 -6 10
-14z m326 -29 c25 -4 34 7 12 16 -10 4 -10 6 -1 6 18 1 26 -18 13 -34 -8 -10
-8 -15 1 -21 8 -5 9 -3 4 5 -5 9 -2 12 11 9 17 -3 19 -14 19 -115 l1 -111 -38
-4 c-36 -3 -38 -2 -38 24 0 16 -5 28 -11 28 -5 0 -8 4 -4 9 3 5 1 12 -3 15
-13 8 -3 89 12 101 7 6 15 23 18 38 5 27 4 29 -23 25 -31 -5 -38 9 -16 31 10
10 13 9 15 -2 2 -8 14 -17 28 -20z m-96 -38 c0 -5 -4 -9 -8 -9 -5 0 -9 7 -9
15 0 8 4 12 9 9 4 -3 8 -9 8 -15z m30 7 c0 -3 -4 -8 -10 -11 -5 -3 -10 -1 -10
4 0 6 5 11 10 11 6 0 10 -2 10 -4z m-290 -71 c0 -16 -35 -29 -50 -20 -21 13
-10 34 16 29 18 -3 23 -1 18 7 -4 8 -3 9 4 5 7 -4 12 -13 12 -21z m56 7 c-10
-2 -22 0 -28 6 -6 6 0 7 19 4 21 -5 23 -7 9 -10z m54 12 c0 -8 -19 -13 -24 -6
-3 5 1 9 9 9 8 0 15 -2 15 -3z m-230 -146 c0 -23 -4 -28 -25 -28 -21 0 -25 5
-25 30 0 26 3 29 25 28 20 -2 25 -8 25 -30z m228 -1 c6 0 12 -4 12 -8 0 -5 7
-6 15 -3 11 5 15 -1 15 -19 0 -24 -2 -25 -57 -22 -32 2 -66 4 -75 4 -12 1 -18
9 -18 24 0 34 10 40 55 32 22 -4 46 -7 53 -8z m-1458 -51 c0 -19 -5 -23 -27
-22 -17 1 -29 7 -31 18 -3 15 2 18 51 27 4 0 7 -10 7 -23z m877 -11 c2 -6 -8
-12 -22 -13 -24 -2 -32 8 -18 22 10 9 36 3 40 -9z m-185 -40 c4 -16 1 -24 -6
-22 -6 2 -11 15 -11 30 -1 32 11 26 17 -8z m306 -60 c18 -6 22 -15 22 -46 l0
-39 -74 0 c-69 0 -104 -11 -74 -23 7 -3 4 -6 -8 -6 -12 -1 -21 5 -21 14 0 8 6
15 14 15 9 0 13 13 13 40 l0 40 40 0 c22 0 40 4 40 9 0 9 7 9 48 -4z m39 -67
c-2 -13 -4 -5 -4 17 -1 22 1 32 4 23 2 -10 2 -28 0 -40z m-293 1 c-3 -5 0 -9
5 -9 6 0 11 7 11 16 0 14 3 14 15 4 23 -19 18 -30 -14 -30 -20 0 -30 6 -34 19
-3 14 -1 18 9 14 8 -3 11 -9 8 -14z m-30 -4 c12 -33 -4 -45 -65 -45 -43 0 -59
4 -59 14 0 8 16 16 40 20 22 3 40 11 40 16 0 16 37 12 44 -5z m-264 -134 c0
-4 -3 -11 -7 -14 -8 -9 -34 13 -28 24 6 9 35 1 35 -10z m468 -18 c5 -35 -28
-26 -41 10 -6 15 -2 18 16 15 14 -2 23 -11 25 -25z m-158 7 c0 -5 -7 -10 -15
-10 -8 0 -15 5 -15 10 0 6 7 10 15 10 8 0 15 -4 15 -10z m348 -26 c31 -6 54
-44 26 -44 -8 0 -14 -4 -14 -10 0 -5 -7 -10 -16 -10 -10 0 -14 5 -10 15 4 12
2 13 -13 6 -10 -6 -22 -7 -26 -3 -5 4 -5 -2 -2 -13 7 -20 7 -20 -8 -1 -16 21
-20 48 -8 59 8 9 31 9 71 1z m-185 -80 c29 -11 20 -34 -13 -34 -26 0 -30 4
-30 26 0 17 4 24 13 20 6 -3 20 -9 30 -12z m-156 -54 c1 -30 -1 -48 -3 -39 -3
10 -14 19 -26 22 -11 3 -17 10 -14 16 4 5 2 12 -3 15 -5 3 -7 15 -4 27 4 14
12 19 27 17 18 -3 21 -10 23 -58z m-801 -97 c-6 -6 -36 9 -36 18 0 5 9 4 20
-3 10 -7 18 -14 16 -15z m431 -33 c11 -28 9 -31 -18 -45 -29 -15 -29 -15 -29
15 0 16 5 30 10 30 6 0 10 7 10 15 0 25 15 17 27 -15z m-797 0 c0 -5 -11 -10
-25 -10 -14 0 -25 5 -25 10 0 6 11 10 25 10 14 0 25 -4 25 -10z m583 -10 c4
-17 0 -20 -23 -20 -38 0 -60 9 -60 26 0 10 12 14 39 14 30 0 40 -4 44 -20z
m-478 -60 c10 -33 -6 -160 -21 -160 -7 0 -16 9 -19 20 -3 11 -11 20 -16 20 -6
0 -9 12 -7 28 2 16 8 26 16 24 8 -1 11 2 7 8 -3 5 1 13 10 17 13 4 15 13 11
34 -6 33 9 40 19 9z m270 -19 c-2 -5 7 -6 20 -3 20 3 25 0 25 -17 0 -11 -4
-21 -10 -21 -5 0 -10 -5 -10 -11 0 -5 5 -7 10 -4 6 3 10 4 10 0 0 -3 -12 -10
-27 -16 -33 -12 -114 8 -91 23 10 6 10 8 1 8 -7 0 -13 11 -13 24 0 22 4 24 45
24 25 0 43 -3 40 -7z m-465 -33 c0 -7 -4 -19 -9 -26 -7 -11 -10 -10 -15 3 -10
26 -7 35 9 35 8 0 15 -6 15 -12z m535 -8 c3 -5 1 -10 -4 -10 -6 0 -11 5 -11
10 0 6 2 10 4 10 3 0 8 -4 11 -10z m25 -191 c0 -10 -7 -19 -15 -19 -9 0 -15 9
-15 25 0 18 4 23 15 19 8 -4 15 -15 15 -25z m-296 -68 c-4 -23 -14 -50 -23
-59 -15 -14 -16 -14 -19 7 -6 41 8 89 26 93 24 6 23 6 16 -41z m143 10 c4 -59
3 -263 -2 -271 -13 -21 -23 -8 -30 35 -3 25 -10 43 -16 40 -5 -4 -9 12 -9 35
0 23 4 39 8 36 5 -3 6 9 4 26 -3 21 -1 29 7 24 7 -5 11 1 11 13 0 12 -4 21
-10 21 -5 0 -10 9 -10 20 0 11 5 20 11 20 5 0 8 4 4 9 -3 6 3 9 13 8 10 0 18
-8 19 -16z m128 -61 c4 -18 1 -42 -7 -60 -14 -32 -28 -40 -28 -14 0 8 -4 13
-9 10 -11 -7 -21 17 -21 53 0 34 7 41 36 41 17 0 24 -7 29 -30z m-697 -50 c10
-17 10 -20 -4 -20 -8 0 -12 5 -9 10 3 6 2 10 -4 10 -5 0 -12 -6 -14 -12 -3 -7
-6 -3 -6 10 -1 27 20 29 37 2z m93 0 c20 -11 26 -45 9 -55 -16 -10 -40 15 -40
41 0 27 3 28 31 14z m359 -50 c0 -22 -4 -40 -10 -40 -5 0 -10 18 -10 40 0 22
5 40 10 40 6 0 10 -18 10 -40z m238 -54 c20 -53 16 -68 -15 -64 -26 3 -28 6
-29 54 -1 44 1 51 16 47 9 -2 22 -19 28 -37z m-542 -42 c-11 -28 -31 -9 -34
32 l-3 39 21 -28 c12 -15 19 -35 16 -43z m164 46 c0 -11 7 -20 15 -20 10 0 15
-9 14 -27 0 -16 -3 -23 -5 -16 -3 7 -18 9 -40 6 -36 -6 -38 -4 -28 46 8 36 44
45 44 11z m-310 -60 c0 -5 7 -10 15 -10 16 0 18 -12 9 -47 -5 -18 -14 -23 -40
-23 -27 0 -34 4 -34 20 0 11 -3 19 -7 19 -21 -3 -33 2 -33 16 0 8 8 16 18 17
9 0 22 2 29 2 6 1 15 5 19 9 11 10 24 9 24 -3z m-200 -19 c0 -16 -19 -23 -40
-16 -30 10 -24 25 10 25 17 0 30 -4 30 -9z m508 -69 c6 6 11 2 15 -11 4 -18 1
-21 -29 -21 -27 0 -34 -4 -34 -20 0 -12 7 -20 18 -21 10 0 12 -3 5 -6 -7 -2
-13 -17 -13 -33 0 -40 41 -70 96 -70 37 0 44 -3 44 -20 0 -12 -7 -20 -17 -21
-83 -3 -263 -2 -268 2 -10 11 8 98 22 103 8 4 11 1 7 -5 -4 -7 3 -10 17 -8 13
2 30 0 36 -4 7 -5 22 -10 33 -12 17 -3 20 2 20 36 0 32 -3 39 -20 39 -17 0
-20 7 -20 45 l0 44 39 -14 c25 -9 42 -10 49 -3z m-171 -104 c-3 -7 -5 -2 -5
12 0 14 2 19 5 13 2 -7 2 -19 0 -25z m-139 -95 c-2 -12 -12 -18 -28 -18 -16 0
-26 6 -28 18 -3 13 3 17 28 17 25 0 31 -4 28 -17z m-798 -38 c0 -8 -9 -15 -20
-15 -13 0 -18 5 -14 15 4 8 12 15 20 15 8 0 14 -7 14 -15z m-10 -281 c0 -17
-22 -14 -28 4 -2 7 3 12 12 12 9 0 16 -7 16 -16z m626 -38 c9 -37 1 -61 -22
-64 -15 -2 -23 4 -27 17 -4 18 -13 21 -56 21 -39 0 -51 4 -51 15 0 11 13 15
54 15 30 0 58 5 61 10 11 18 35 10 41 -14z m268 8 c9 -3 16 -12 16 -19 0 -15
-56 -110 -94 -160 -23 -30 -26 -42 -26 -119 0 -72 -3 -86 -16 -86 -12 0 -15 6
-10 25 5 18 1 27 -14 35 -34 18 -22 140 15 140 8 0 15 7 15 15 0 8 5 15 10 15
6 0 10 18 10 40 0 29 4 40 15 40 10 0 15 10 15 34 0 32 6 39 42 45 3 0 13 -2
22 -5z m-154 -19 c0 -8 -4 -15 -10 -15 -5 0 -10 7 -10 15 0 8 5 15 10 15 6 0
10 -7 10 -15z m-20 -110 c0 -21 -5 -25 -30 -25 -22 0 -30 5 -30 18 0 25 9 32
37 32 18 0 23 -5 23 -25z m-390 -40 c0 -16 -6 -25 -15 -25 -9 0 -15 9 -15 25
0 16 6 25 15 25 9 0 15 -9 15 -25z m263 -25 c17 -19 32 -27 43 -23 13 5 13 7
2 14 -10 7 -8 9 6 9 16 0 17 2 5 18 -13 15 -12 16 3 4 15 -12 15 -16 -3 -58
-24 -54 -18 -80 21 -88 27 -5 45 -36 21 -36 -5 0 -12 -13 -16 -30 -9 -43 -33
-38 -41 9 -3 21 -9 44 -13 50 -10 16 -72 24 -91 12 -12 -8 -11 -13 8 -34 12
-13 22 -33 22 -45 0 -19 -6 -22 -40 -22 -37 0 -41 3 -46 30 -4 16 -15 32 -25
35 -31 10 -22 33 13 37 29 3 33 7 45 56 12 46 37 89 54 91 3 1 18 -12 32 -29z
m-265 -127 c2 -8 -5 -13 -17 -13 -12 0 -21 6 -21 16 0 18 31 15 38 -3z m-148
-108 c18 -21 5 -45 -25 -45 -20 0 -25 5 -25 23 0 39 26 50 50 22z m148 -43 c3
-18 -2 -22 -21 -22 -25 0 -29 12 -13 38 11 18 30 9 34 -16z m257 -31 c9 -31 2
-101 -10 -101 -7 0 -20 10 -31 21 -10 12 -26 24 -35 28 -12 5 -14 13 -8 36 7
26 14 31 43 33 27 2 36 -2 41 -17z m-568 -76 c7 -20 3 -24 -28 -27 -18 -2 -25
2 -27 20 -3 18 1 22 23 22 14 0 28 -7 32 -15z m182 -9 c7 -8 9 -25 5 -42 -5
-17 -3 -25 3 -21 17 11 23 -34 7 -50 -22 -22 -47 -12 -48 20 -1 15 3 27 9 27
5 1 -3 11 -18 24 -19 15 -26 28 -21 39 8 21 47 22 63 3z m121 -11 c0 -8 -7
-15 -15 -15 -8 0 -15 7 -15 15 0 8 7 15 15 15 8 0 15 -7 15 -15z m193 -52 c3
-18 0 -31 -9 -36 -8 -5 -14 -24 -14 -45 0 -91 -13 -172 -27 -172 -19 0 -37 20
-41 45 -13 93 -13 103 2 133 9 17 16 44 16 61 0 30 10 39 46 40 16 1 23 -6 27
-26z m-157 -186 c1 -49 -1 -57 -17 -57 -26 0 -29 11 -22 69 5 40 9 51 22 49
12 -3 16 -17 17 -61z m-91 -38 c0 -24 -5 -35 -17 -37 -14 -3 -18 3 -18 27 0
17 5 31 11 31 5 0 7 5 3 11 -4 7 -1 10 7 7 8 -3 14 -19 14 -39z m313 -17 c3
-37 1 -42 -18 -42 -27 0 -35 23 -20 61 17 40 34 32 38 -19z m-380 -64 c-7 -19
-38 -22 -38 -4 0 10 9 16 21 16 12 0 19 -5 17 -12z m-189 -147 c35 -33 41 -61
12 -61 -11 0 -26 -3 -35 -6 -13 -5 -16 2 -16 45 0 28 2 51 4 51 2 0 18 -13 35
-29z m381 -151 c0 -5 7 -10 15 -10 8 0 15 -8 15 -18 0 -24 -59 -52 -110 -52
-22 0 -40 -4 -40 -10 0 -5 -5 -10 -11 -10 -13 0 -5 56 11 75 6 7 23 11 39 9
17 -2 34 3 41 11 14 17 40 20 40 5z m-531 -219 c8 -5 11 -16 8 -25 -5 -14 -11
-15 -27 -6 -11 6 -20 17 -20 25 0 17 18 19 39 6z m359 -34 c2 -27 -2 -36 -22
-45 -20 -9 -29 -8 -47 7 -18 14 -20 21 -11 37 6 10 12 15 12 11 0 -5 10 -1 22
7 33 24 44 20 46 -17z m368 -73 c3 -17 -1 -20 -26 -16 -28 4 -39 20 -23 36 14
14 46 1 49 -20z m-222 -24 c18 -18 -4 -61 -39 -76 -19 -8 -35 -19 -35 -24 0
-6 -6 -10 -14 -10 -17 0 -24 33 -18 82 3 31 8 38 31 41 30 4 62 -1 75 -13z
m240 -61 c9 -45 7 -129 -2 -129 -13 0 -32 97 -26 130 8 39 20 38 28 -1z m-115
-10 c39 -3 42 -5 39 -28 -3 -22 -8 -26 -33 -24 -16 1 -33 -3 -37 -10 -5 -8 -8
-6 -8 6 0 10 -4 15 -10 12 -6 -4 -10 7 -10 25 0 17 4 29 8 26 5 -3 27 -6 51
-7z m-255 -164 c-6 -16 -24 -21 -24 -7 0 11 11 22 21 22 5 0 6 -7 3 -15z m146
-45 c0 -21 -18 -27 -72 -22 -48 5 -54 34 -6 30 17 -1 33 3 35 9 6 17 43 3 43
-17z m-30 -125 c0 -22 -4 -25 -40 -25 -22 0 -40 5 -40 10 0 6 16 10 35 10 24
0 35 5 35 15 0 8 2 15 5 15 3 0 5 -11 5 -25z m220 -20 c0 -33 -2 -35 -32 -35
-52 0 -78 11 -78 31 0 11 7 19 15 19 8 0 15 5 15 10 0 6 18 10 40 10 39 0 40
-1 40 -35z m-326 -373 c0 -16 4 -21 14 -17 10 4 13 0 9 -15 -4 -17 0 -20 36
-22 l42 -1 -40 -4 c-22 -3 -44 -11 -48 -19 -8 -15 -37 -18 -74 -8 -29 8 -30
37 -2 65 11 11 18 27 15 35 -5 12 1 15 22 12 21 -2 27 -8 26 -26z m-304 -2 c0
-12 -28 -25 -36 -17 -9 9 6 27 22 27 8 0 14 -5 14 -10z m-2 -107 c-2 -11 -14
-19 -31 -21 -29 -4 -30 -2 -21 22 9 23 56 21 52 -1z m-120 -70 c3 -18 -2 -23
-17 -23 -12 0 -21 5 -21 10 0 6 -9 10 -20 10 -11 0 -20 7 -20 16 0 12 9 14 38
12 30 -2 38 -7 40 -25z m-150 -76 c2 -12 -3 -17 -17 -17 -23 0 -24 1 -15 25 8
19 28 15 32 -8z m-10 -115 c2 -7 -3 -12 -12 -12 -9 0 -16 7 -16 16 0 17 22 14
28 -4z m276 -327 c3 -8 1 -15 -4 -15 -6 0 -10 7 -10 15 0 8 2 15 4 15 2 0 6
-7 10 -15z m-324 -85 c0 -5 -7 -10 -15 -10 -8 0 -15 5 -15 10 0 6 7 10 15 10
8 0 15 -4 15 -10z m-100 -110 c0 -5 -11 -10 -25 -10 -14 0 -25 5 -25 10 0 6
11 10 25 10 14 0 25 -4 25 -10z m174 -236 c17 -7 22 -44 6 -44 -5 0 -10 -6
-10 -13 0 -7 -13 -14 -30 -15 -27 -2 -30 1 -30 26 0 26 10 37 47 51 1 1 8 -2
17 -5z m-90 -103 c9 -14 -5 -41 -21 -41 -8 0 -12 4 -9 9 4 5 1 11 -6 13 -15 5
-1 28 17 28 8 0 16 -4 19 -9z m-404 -316 l0 -65 -45 0 c-39 0 -45 3 -45 21 0
12 8 23 20 26 16 4 20 14 20 44 0 35 3 39 25 39 24 0 25 -2 25 -65z m0 -194
c0 -10 9 -21 20 -24 20 -5 29 -37 11 -37 -5 0 -7 -8 -4 -18 5 -22 -11 -37 -57
-50 -19 -6 -50 -15 -67 -21 -18 -5 -33 -6 -33 -1 0 4 9 10 20 13 18 5 20 14
20 81 l0 76 45 0 c37 0 45 -3 45 -19z m-250 -186 c0 -8 -10 -15 -22 -17 -36
-5 -68 3 -68 17 0 8 10 15 23 17 35 5 67 -3 67 -17z"/>
<path d="M7120 11510 l0 -610 420 0 c231 0 420 4 420 9 0 4 19 11 43 14 106
15 230 87 310 181 119 140 142 213 134 416 -7 163 -27 236 -93 335 -87 131
-181 208 -302 245 -60 19 -93 20 -498 20 l-434 0 0 -610z"/>
<path d="M12892 11964 c1 -9 9 -19 16 -22 9 -3 13 2 10 14 -1 9 -9 19 -16 22
-9 3 -13 -2 -10 -14z"/>
<path d="M25260 9301 c0 -12 -8 -21 -22 -24 -20 -4 -19 -4 5 -6 23 -1 27 3 27
24 0 14 -2 25 -5 25 -3 0 -5 -9 -5 -19z"/>
<path d="M25168 8523 c7 -3 16 -2 19 1 4 3 -2 6 -13 5 -11 0 -14 -3 -6 -6z"/>
<path d="M24415 8330 c-3 -5 -1 -10 4 -10 6 0 11 5 11 10 0 6 -2 10 -4 10 -3
0 -8 -4 -11 -10z"/>
<path d="M10523 23340 c-27 -11 -30 -35 -7 -44 22 -9 32 3 14 14 -13 8 -12 10
3 10 9 0 17 7 17 15 0 8 -1 15 -2 14 -2 0 -13 -4 -25 -9z"/>
<path d="M11148 23323 c7 -3 16 -2 19 1 4 3 -2 6 -13 5 -11 0 -14 -3 -6 -6z"/>
<path d="M12146 23295 c-3 -8 -1 -15 4 -15 6 0 10 4 10 9 0 5 12 12 28 14 26
4 26 4 -4 6 -20 0 -34 -5 -38 -14z"/>
<path d="M10428 23213 c7 -3 16 -2 19 1 4 3 -2 6 -13 5 -11 0 -14 -3 -6 -6z"/>
<path d="M13333 23213 c-7 -3 -13 -13 -13 -24 0 -14 7 -19 25 -19 14 0 25 4
25 8 0 16 -25 40 -37 35z"/>
<path d="M12550 23090 c0 -17 -7 -20 -40 -20 -33 0 -40 -3 -40 -20 0 -11 -7
-20 -15 -20 -10 0 -15 -11 -15 -35 0 -39 16 -48 23 -12 l4 22 2 -22 c1 -20 7
-23 41 -23 40 0 40 0 40 -39 0 -33 4 -40 25 -45 16 -4 22 -11 19 -21 -4 -9 0
-15 9 -15 9 0 18 8 20 18 4 15 5 15 6 0 1 -11 12 -18 34 -21 l32 -4 -32 -1
c-21 -1 -33 -7 -33 -16 0 -16 44 -26 83 -19 26 5 28 9 23 36 -3 16 -6 33 -6
37 0 5 -16 17 -35 29 -35 20 -35 21 -29 76 6 52 5 55 -15 55 -14 0 -21 6 -21
20 0 13 -7 20 -20 20 -13 0 -20 7 -20 20 0 13 -7 20 -20 20 -13 0 -20 -7 -20
-20z"/>
<path d="M13054 22881 c0 -29 1 -34 3 -13 3 19 10 32 19 32 20 0 18 17 -4 22
-14 4 -17 -2 -18 -41z"/>
<path d="M13036 22794 c-16 -42 5 -99 37 -99 28 0 67 44 67 74 0 20 -2 23 -10
11 -6 -10 -10 -11 -10 -2 0 6 -7 12 -15 12 -8 0 -15 5 -15 10 0 16 -47 11 -54
-6z"/>
<path d="M13760 22020 c0 -13 5 -20 13 -17 6 2 12 10 12 17 0 7 -6 15 -12 18
-8 2 -13 -5 -13 -18z"/>
<path d="M14064 21975 c-4 -9 -2 -21 4 -27 15 -15 54 1 50 20 -4 23 -46 28
-54 7z"/>
<path d="M13870 21959 c0 -17 5 -20 37 -17 27 2 39 8 41 21 3 14 -4 17 -37 17
-35 0 -41 -3 -41 -21z"/>
<path d="M14311 21722 c-13 -25 -7 -42 15 -42 15 0 17 14 5 45 -8 19 -8 19
-20 -3z"/>
<path d="M14827 21384 c-4 -22 -1 -25 22 -22 37 4 44 48 8 48 -19 0 -26 -6
-30 -26z"/>
<path d="M14719 21338 c-7 -14 -6 -20 6 -24 8 -3 15 -12 15 -20 0 -21 24 -17
48 9 32 34 27 44 -19 49 -31 3 -43 0 -50 -14z"/>
<path d="M14720 20703 c0 -14 6 -23 15 -23 8 0 15 -5 15 -11 0 -5 5 -7 10 -4
6 3 10 1 10 -4 0 -6 16 -11 35 -11 24 0 35 5 35 15 0 10 10 15 30 15 24 0 30
4 30 21 0 20 -4 21 -42 16 -24 -3 -64 -2 -90 2 -46 7 -48 7 -48 -16z"/>
<path d="M14900 20279 c0 -15 5 -20 22 -17 34 5 37 38 4 38 -20 0 -26 -5 -26
-21z"/>
<path d="M14710 20005 c0 -8 -9 -15 -20 -15 -16 0 -20 -7 -20 -36 0 -27 5 -37
20 -41 11 -3 20 -14 20 -24 0 -15 7 -19 40 -19 34 0 40 3 40 21 0 17 5 20 21
16 20 -5 21 -3 16 29 -8 48 -44 84 -84 84 -23 0 -33 -5 -33 -15z"/>
<path d="M14900 19730 c0 -57 1 -60 25 -60 24 0 25 3 25 60 0 57 -1 60 -25 60
-24 0 -25 -3 -25 -60z"/>
<path d="M15160 19725 c0 -37 4 -55 13 -55 24 0 32 15 34 63 2 44 0 47 -22 47
-24 0 -25 -3 -25 -55z"/>
<path d="M15450 19570 c0 -11 7 -20 15 -20 10 0 15 -10 15 -34 0 -40 16 -55
37 -34 12 12 12 23 2 61 -10 42 -14 47 -40 47 -22 0 -29 -5 -29 -20z"/>
<path d="M15770 19020 c0 -11 -4 -20 -10 -20 -5 0 -10 -15 -10 -34 0 -32 2
-35 41 -41 22 -4 42 -5 44 -3 2 2 1 29 -2 61 -6 55 -7 57 -34 57 -22 0 -29 -5
-29 -20z"/>
<path d="M15592 18830 c2 -19 9 -25 27 -25 13 0 26 6 29 13 2 7 -5 12 -15 12
-11 0 -25 6 -32 13 -10 10 -12 7 -9 -13z"/>
<path d="M15827 18833 c-12 -11 -7 -67 7 -85 23 -31 43 -21 55 28 6 25 9 49 6
55 -7 10 -58 12 -68 2z"/>
<path d="M15524 18737 c-13 -15 -26 -47 -29 -70 -2 -23 50 -37 88 -24 22 7 27
15 27 43 0 22 -5 34 -14 34 -8 0 -16 7 -20 15 -6 18 -37 19 -52 2z"/>
<path d="M15906 18595 c-3 -8 -12 -15 -21 -15 -10 0 -15 -10 -15 -28 0 -26 3
-29 38 -30 49 -2 59 6 67 51 l7 37 -35 0 c-22 0 -37 -6 -41 -15z"/>
<path d="M16053 17955 c-17 -19 -16 -32 3 -39 48 -18 78 4 45 35 -24 22 -32
23 -48 4z"/>
<path d="M15522 17800 c1 -35 23 -40 31 -8 7 25 1 38 -18 38 -9 0 -13 -11 -13
-30z"/>
<path d="M7330 15320 l0 -1610 1763 0 c1751 0 1764 0 1782 20 15 16 31 20 84
20 61 0 68 2 90 30 20 26 30 30 70 30 35 0 50 5 61 20 10 14 26 20 50 20 24 0
40 6 50 20 8 11 21 20 30 20 9 0 22 9 30 20 8 11 20 20 28 20 20 0 60 44 64
70 4 31 33 49 50 32 10 -10 10 -17 0 -32 -24 -39 4 -19 73 50 38 39 74 70 80
70 5 0 33 22 60 49 58 57 65 66 85 104 8 16 22 33 32 38 10 5 18 17 18 25 0
24 50 104 65 104 18 0 28 30 14 46 -18 22 7 54 41 54 28 0 30 3 30 38 0 20 4
44 10 52 5 9 5 17 -1 20 -6 4 -6 17 1 36 5 16 11 52 13 79 1 28 7 49 13 48 5
-1 14 14 20 33 6 19 7 34 2 34 -5 0 -6 20 -2 45 5 39 4 44 -10 39 -13 -5 -16
1 -16 35 0 29 4 41 14 41 8 0 17 -8 19 -17 4 -16 5 -16 6 -1 0 9 -3 20 -9 23
-5 3 -10 17 -10 31 0 17 -8 27 -25 34 -29 11 -33 39 -9 75 11 17 14 34 10 53
-19 75 -22 122 -9 122 8 0 13 13 13 35 0 28 -4 36 -24 41 -20 5 -32 24 -62
101 -21 53 -40 91 -42 84 -5 -14 -77 61 -98 101 -13 26 -11 32 9 29 4 -1 17 3
27 9 24 13 27 50 5 50 -9 0 -18 7 -22 16 -5 14 -8 13 -23 -6 l-17 -22 -31 30
c-18 17 -32 35 -32 40 0 5 -6 15 -14 21 -8 7 -13 23 -10 35 3 18 -2 26 -19 31
-12 4 -25 7 -29 6 -3 0 -11 6 -18 14 -10 12 -7 21 14 46 15 17 25 37 23 43 -4
12 -52 13 -103 2 -34 -7 -51 5 -58 45 -3 13 -5 25 -7 27 -1 1 -2 6 -3 11 0 5
-4 13 -8 17 -5 4 -8 18 -8 31 0 16 -6 23 -20 23 -12 0 -30 9 -42 20 -12 11
-28 20 -35 20 -8 0 -32 14 -54 32 -27 22 -39 39 -39 57 0 23 -6 29 -47 40 -52
15 -86 34 -77 44 6 6 -34 31 -51 32 -46 2 -118 83 -110 124 3 15 -4 25 -26 36
-22 12 -29 13 -31 3 -6 -51 -16 -64 -53 -66 -30 -2 -37 1 -45 23 -6 15 -10 38
-10 53 -1 53 -36 74 -184 112 -44 11 -83 25 -86 31 -4 5 -33 11 -66 12 -32 1
-61 5 -64 9 -3 4 -49 10 -103 14 -53 4 -97 11 -97 15 0 5 -36 9 -80 9 -61 0
-80 3 -80 14 0 16 -124 26 -241 20 l-76 -5 2 31 c2 28 0 30 -36 30 -33 0 -40
-4 -45 -25 -5 -20 -12 -25 -39 -25 -27 0 -34 5 -39 25 -6 23 -11 25 -65 25
-33 0 -61 -5 -63 -10 -5 -16 -130 -18 -135 -2 -7 19 -93 16 -93 -3 0 -10 -11
-15 -35 -15 -39 0 -48 16 -12 23 12 2 1 5 -25 6 -37 1 -48 -3 -48 -14 0 -8 -4
-15 -10 -15 -5 0 -10 7 -10 15 0 13 -25 15 -164 15 -151 0 -164 -1 -160 -17 7
-29 -11 -46 -40 -39 -19 5 -26 13 -26 31 l0 25 -685 0 -685 0 0 -1610z m3138
1413 c-10 -2 -26 -2 -35 0 -10 3 -2 5 17 5 19 0 27 -2 18 -5z m252 -33 c0 -20
-15 -25 -44 -14 -28 11 -18 34 14 34 23 0 30 -4 30 -20z m1097 -2336 c4 -12
-44 -64 -59 -64 -15 0 -19 25 -8 54 8 22 15 27 37 24 14 -2 28 -8 30 -14z
m-173 -163 c7 -11 -42 -61 -60 -61 -8 0 -14 11 -14 25 0 17 4 23 15 19 8 -4
17 1 21 10 7 17 29 22 38 7z"/>
<path d="M9350 16920 c0 -5 9 -10 20 -10 11 0 20 5 20 10 0 6 -9 10 -20 10
-11 0 -20 -4 -20 -10z"/>
<path d="M12630 16469 c0 -13 29 -43 36 -36 3 2 -2 12 -10 20 -12 12 -13 17
-3 20 7 3 5 6 -5 6 -10 1 -18 -4 -18 -10z"/>
<path d="M12924 15714 c3 -9 6 -209 6 -445 0 -236 4 -429 8 -429 5 0 13 17 18
38 l9 37 53 -3 c74 -5 136 5 161 27 18 16 21 30 21 94 0 71 2 77 23 82 12 2
575 6 1251 7 973 2 1230 6 1234 16 6 18 78 16 86 -3 3 -8 12 -15 21 -15 9 0
18 7 21 15 5 11 24 15 80 15 72 0 74 1 74 25 0 18 5 25 20 25 13 0 20 7 20 20
0 16 7 20 35 20 27 0 35 4 35 18 0 14 9 17 45 17 37 0 45 3 45 18 0 10 -3 16
-7 14 -5 -3 -6 15 -4 39 2 35 7 44 22 44 13 0 19 7 19 21 0 20 -4 21 -47 17
-62 -7 -73 -2 -73 33 0 26 -4 29 -30 29 -25 0 -30 -4 -30 -25 0 -24 -2 -25
-65 -25 -63 0 -65 1 -65 25 0 23 -4 25 -40 25 -22 0 -40 5 -40 10 0 6 -7 10
-15 10 -8 0 -15 9 -15 20 0 15 -7 20 -25 20 -21 0 -25 -5 -25 -30 0 -20 -5
-30 -15 -30 -9 0 -15 -9 -15 -25 0 -23 -4 -25 -45 -25 -41 0 -45 2 -45 25 0
16 -6 25 -15 25 -8 0 -15 5 -15 10 0 6 -9 10 -20 10 -13 0 -20 7 -20 20 0 17
-7 20 -40 20 -38 0 -40 -2 -40 -30 0 -23 -4 -30 -20 -30 -15 0 -22 9 -26 30
-4 17 -13 30 -20 30 -8 0 -14 9 -14 20 0 17 -7 20 -40 20 -33 0 -40 -3 -40
-20 0 -17 -7 -20 -39 -20 -31 0 -41 4 -46 20 -3 11 -13 20 -21 20 -8 0 -14 5
-14 10 0 6 -7 10 -15 10 -9 0 -15 -9 -15 -24 0 -30 -15 -36 -82 -30 -29 3 -81
1 -116 -4 -89 -13 -112 -7 -112 29 l0 28 -197 2 c-109 1 -231 2 -272 3 -51 0
-76 -3 -79 -12 -2 -6 -19 -12 -37 -12 -28 0 -35 5 -49 35 -14 28 -23 35 -46
35 -21 0 -30 -5 -30 -16 0 -14 -13 -16 -97 -12 -63 3 -98 8 -101 16 -2 7 -21
12 -43 12 -21 0 -39 5 -39 10 0 6 -25 10 -55 10 -30 0 -55 -4 -55 -10 0 -15
-78 -12 -83 3 -4 13 -9 13 -254 16 -120 1 -143 3 -143 16 0 19 -37 20 -56 0
-11 -10 -37 -14 -102 -13 -48 1 -102 -2 -121 -6 -24 -6 -31 -5 -27 3 4 6 2 11
-3 11 -6 0 -11 7 -11 15 0 9 -9 15 -21 15 -15 0 -19 -4 -15 -16z m3147 -334
c10 0 19 -7 19 -15 0 -10 -11 -15 -35 -15 -29 0 -35 4 -35 21 0 15 4 19 16 15
9 -3 24 -6 35 -6z m-2793 -214 c-2 -13 -12 -22 -25 -24 -26 -4 -28 1 -12 26
16 26 41 24 37 -2z"/>
<path d="M16628 15373 c-25 -3 -38 -9 -38 -19 0 -8 5 -14 10 -14 6 0 10 -9 10
-20 0 -15 7 -20 25 -20 15 0 25 6 25 14 0 7 9 16 20 19 26 7 28 48 3 45 -10
-1 -35 -3 -55 -5z"/>
<path d="M17250 15345 c0 -10 7 -15 18 -13 21 4 19 22 -2 26 -10 2 -16 -3 -16
-13z"/>
<path d="M16370 15294 c0 -21 -5 -24 -35 -24 -28 0 -35 -4 -35 -20 0 -13 -7
-20 -20 -20 -13 0 -20 -7 -20 -20 0 -13 -7 -20 -19 -20 -19 0 -31 -25 -24 -47
5 -15 43 -18 43 -3 0 6 8 10 18 11 10 0 12 3 5 6 -7 2 -13 13 -13 24 0 16 7
19 55 19 42 0 55 3 55 15 0 8 9 15 20 15 11 0 20 -7 20 -15 0 -8 9 -15 19 -15
11 0 22 -6 24 -12 3 -7 6 -1 6 14 1 21 -5 29 -24 34 -18 4 -26 15 -31 39 -7
41 -44 57 -44 19z"/>
<path d="M16610 15250 c0 -5 11 -10 25 -10 14 0 25 5 25 10 0 6 -11 10 -25 10
-14 0 -25 -4 -25 -10z"/>
<path d="M16610 15215 c0 -9 9 -15 25 -15 16 0 25 6 25 15 0 9 -9 15 -25 15
-16 0 -25 -6 -25 -15z"/>
<path d="M16308 15163 c6 -2 18 -2 25 0 6 3 1 5 -13 5 -14 0 -19 -2 -12 -5z"/>
<path d="M12041 15144 c0 -11 3 -14 6 -6 3 7 2 16 -1 19 -3 4 -6 -2 -5 -13z"/>
<path d="M16438 15153 c7 -3 16 -2 19 1 4 3 -2 6 -13 5 -11 0 -14 -3 -6 -6z"/>
<path d="M18882 15023 c2 -9 9 -18 16 -21 18 -6 15 25 -4 32 -11 4 -14 1 -12
-11z"/>
<path d="M12959 14795 c-5 -19 -3 -31 6 -37 18 -13 25 -9 25 17 0 16 -6 25
-15 25 -8 0 -16 -2 -16 -5z"/>
<path d="M14055 14169 c-16 -5 -59 -11 -95 -13 -109 -5 -110 -7 -110 -168 l0
-138 585 0 c383 0 585 3 585 10 0 6 18 10 40 10 l39 0 -6 65 c-5 61 -5 65 14
65 24 0 33 -24 33 -87 l0 -43 69 0 c87 0 131 9 131 26 0 10 13 14 40 14 36 0
40 3 40 25 0 16 6 25 15 25 11 0 15 -11 15 -39 0 -36 2 -38 30 -37 17 1 30 7
30 14 0 6 5 12 10 12 6 0 10 18 10 40 0 42 -21 73 -59 85 -17 5 -21 2 -21 -14
0 -17 -6 -21 -35 -21 -27 0 -35 4 -35 19 0 22 -65 31 -240 31 l-117 0 5 30 c4
25 1 30 -17 30 -12 0 -21 -6 -21 -15 0 -8 -7 -15 -15 -15 -8 0 -15 -7 -15 -15
0 -12 -13 -15 -55 -15 -41 0 -55 4 -55 15 0 25 -23 65 -37 65 -8 0 -11 -4 -8
-10 3 -5 1 -10 -4 -10 -6 0 -11 -7 -11 -15 0 -10 -11 -15 -35 -15 -19 0 -35 5
-35 11 0 17 -27 39 -49 39 -12 0 -21 -3 -21 -8 0 -7 -43 -6 -155 2 -22 1 -59
3 -82 4 -35 2 -43 6 -43 20 0 17 -10 19 -102 20 -57 0 -121 3 -143 6 -22 3
-53 1 -70 -5z m-155 -58 c0 -5 -7 -14 -15 -21 -8 -7 -15 -10 -15 -7 0 3 -3 12
-6 21 -4 12 0 16 15 16 12 0 21 -4 21 -9z m360 -36 c0 -16 -27 -32 -37 -22 -3
4 -3 13 0 22 8 20 37 20 37 0z"/>
<path d="M15475 14140 c-12 -20 6 -70 24 -70 17 0 19 12 13 68 -2 15 -28 16
-37 2z"/>
<path d="M18856 14085 c4 -8 15 -15 25 -15 10 0 19 7 19 15 0 9 -9 15 -25 15
-18 0 -23 -4 -19 -15z"/>
<path d="M15656 14049 c-9 -48 -9 -49 34 -49 46 0 80 24 80 57 0 21 -4 23 -54
23 -52 0 -54 -1 -60 -31z"/>
<path d="M15893 13980 c-3 -11 -12 -20 -19 -20 -8 0 -14 -9 -14 -20 0 -11 7
-20 15 -20 8 0 15 7 15 15 0 8 9 15 20 15 15 0 20 7 20 25 0 31 -29 34 -37 5z"/>
<path d="M15794 13946 c-10 -26 0 -49 22 -52 21 -3 33 17 34 54 0 17 -49 15
-56 -2z"/>
<path d="M23487 13037 c-61 -88 -70 -117 -37 -117 16 0 20 -7 20 -35 0 -31 3
-35 26 -35 l26 0 -7 75 -7 75 25 0 c24 0 25 3 29 60 2 38 -1 60 -8 60 -6 0
-36 -37 -67 -83z"/>
<path d="M23910 13100 c0 -16 7 -20 35 -20 19 0 35 -4 35 -8 0 -4 16 -6 35 -4
44 5 48 32 5 32 -16 0 -30 5 -30 10 0 6 -18 10 -40 10 -33 0 -40 -3 -40 -20z"/>
<path d="M13778 13063 c7 -3 16 -2 19 1 4 3 -2 6 -13 5 -11 0 -14 -3 -6 -6z"/>
<path d="M23618 12793 c12 -2 30 -2 40 0 9 3 -1 5 -23 4 -22 0 -30 -2 -17 -4z"/>
<path d="M23750 12780 c0 -13 7 -20 20 -20 11 0 20 5 20 10 0 6 8 10 18 11 11
1 9 4 -8 9 -41 13 -50 11 -50 -10z"/>
<path d="M18772 12494 c-30 -21 -28 -48 8 -84 60 -62 18 -78 -59 -23 -24 17
-24 17 -13 -3 12 -22 69 -54 96 -54 12 0 16 10 16 35 0 24 5 35 15 35 23 0 55
37 55 65 0 43 -72 61 -118 29z"/>
<path d="M18903 12345 c-3 -9 -3 -18 0 -21 9 -9 27 6 27 22 0 19 -19 18 -27
-1z"/>
<path d="M23261 11636 c-1 -15 -6 -17 -36 -12 -27 5 -35 3 -35 -7 0 -8 -11
-23 -25 -33 -14 -10 -25 -24 -25 -31 0 -7 -4 -13 -10 -13 -5 0 -7 7 -4 15 4 8
2 15 -4 15 -5 0 -12 -7 -16 -15 -3 -8 -10 -15 -15 -15 -6 0 -8 7 -5 15 5 12
-5 14 -58 11 -34 -2 -66 0 -69 6 -4 5 -24 4 -54 -3 -38 -10 -45 -14 -29 -20
17 -6 16 -7 -8 -14 -16 -4 -25 -12 -22 -19 3 -6 0 -4 -8 5 -14 17 -40 8 -78
-26 -13 -12 -20 -14 -20 -5 0 10 -3 10 -15 0 -11 -9 -12 -15 -5 -20 11 -7 -17
-38 -29 -32 -3 1 -8 -38 -9 -88 -2 -54 0 -90 6 -90 5 0 15 -13 22 -29 6 -16
25 -42 42 -57 16 -16 34 -39 39 -51 7 -19 16 -23 52 -23 65 0 95 -18 100 -60
2 -19 0 -36 -5 -38 -17 -7 -7 -30 15 -34 23 -4 47 12 47 32 0 5 5 10 10 10 6
0 10 7 10 15 0 11 11 15 39 15 25 0 41 -5 45 -15 3 -8 15 -15 26 -15 11 0 20
-7 20 -15 0 -8 7 -15 16 -15 8 0 12 -4 9 -10 -14 -23 51 -9 68 14 10 13 31 26
48 30 17 3 34 15 40 29 14 31 67 56 102 50 15 -3 34 0 42 7 13 10 15 9 15 -9
0 -22 14 -28 25 -11 3 6 0 10 -7 11 -7 1 -2 5 12 9 l25 8 -24 1 c-19 1 -21 4
-12 15 9 11 9 15 -1 18 -16 6 -12 63 7 105 8 17 18 59 22 92 5 54 4 61 -11 55
-12 -5 -16 0 -16 20 0 14 -4 26 -10 26 -5 0 -10 8 -10 18 0 23 -56 61 -81 55
-10 -3 -19 -8 -19 -12 0 -4 -11 -8 -25 -9 -20 -1 -25 3 -25 23 0 13 -8 29 -17
34 -11 7 -13 11 -5 11 8 0 12 9 10 22 -2 17 -10 23 -28 23 -18 0 -27 7 -31 25
-5 18 -7 19 -8 6z m-361 -261 c-7 -9 -15 -13 -19 -10 -3 3 1 10 9 15 21 14 24
12 10 -5z m-35 -73 c-3 -7 -5 -22 -5 -33 0 -20 -24 -26 -35 -8 -13 20 4 58 25
56 13 -1 19 -6 15 -15z m353 -299 c-10 -2 -26 -2 -35 0 -10 3 -2 5 17 5 19 0
27 -2 18 -5z"/>
<path d="M22741 11530 c-17 -14 -19 -20 -8 -20 9 0 22 6 29 13 7 8 20 16 28
20 11 4 9 6 -5 6 -11 0 -31 -9 -44 -19z"/>
<path d="M21270 11450 c0 -12 -12 -26 -30 -35 -56 -29 -78 -116 -35 -136 19
-10 19 -9 2 4 -17 14 -17 15 6 13 15 0 23 -6 20 -13 -3 -7 2 -13 10 -13 11 0
17 13 21 43 13 106 17 157 12 157 -3 0 -6 -9 -6 -20z"/>
<path d="M21400 11380 c0 -33 3 -40 20 -40 17 0 20 7 20 40 0 33 -3 40 -20 40
-17 0 -20 -7 -20 -40z"/>
<path d="M16840 11351 c0 -5 -3 -16 -6 -25 -5 -13 1 -16 25 -16 31 0 36 6 25
34 -6 17 -44 23 -44 7z"/>
<path d="M16707 11303 c-4 -3 -7 -32 -7 -64 0 -53 2 -57 26 -62 18 -3 34 2 50
16 30 25 30 37 3 37 -18 0 -20 4 -14 30 6 26 3 31 -20 40 -31 12 -30 12 -38 3z"/>
<path d="M16780 11250 c0 -5 7 -10 16 -10 8 0 12 5 9 10 -3 6 -10 10 -16 10
-5 0 -9 -4 -9 -10z"/>
<path d="M21176 11183 c27 -24 47 -33 74 -33 20 0 41 -5 47 -11 13 -13 67 -3
83 16 6 7 8 24 5 37 -6 23 -8 23 -126 23 l-121 0 38 -32z"/>
<path d="M16719 11151 c11 -7 11 -9 0 -14 -10 -4 -9 -6 3 -6 23 -1 32 15 12
23 -23 9 -31 7 -15 -3z"/>
<path d="M18591 10614 c0 -11 3 -14 6 -6 3 7 2 16 -1 19 -3 4 -6 -2 -5 -13z"/>
<path d="M24772 10258 c-39 -24 -36 -33 7 -23 22 5 31 12 31 26 0 10 -1 19 -2
18 -2 0 -18 -10 -36 -21z"/>
<path d="M22065 10060 c3 -5 8 -10 11 -10 2 0 4 5 4 10 0 6 -5 10 -11 10 -5 0
-7 -4 -4 -10z"/>
<path d="M21268 10003 c-36 -9 -20 -33 23 -33 33 0 40 3 37 18 -3 17 -29 24
-60 15z"/>
<path d="M21073 9955 c-3 -9 -3 -18 0 -22 10 -10 37 6 37 22 0 20 -29 20 -37
0z"/>
<path d="M20670 9950 c0 -5 11 -10 25 -10 14 0 25 5 25 10 0 6 -11 10 -25 10
-14 0 -25 -4 -25 -10z"/>
<path d="M21228 9933 c7 -3 16 -2 19 1 4 3 -2 6 -13 5 -11 0 -14 -3 -6 -6z"/>
<path d="M21060 9910 c0 -5 9 -10 20 -10 11 0 20 5 20 10 0 6 -9 10 -20 10
-11 0 -20 -4 -20 -10z"/>
<path d="M20146 9894 c-9 -23 -8 -24 20 -24 20 0 25 4 20 16 -3 9 -6 18 -6 20
0 12 -29 2 -34 -12z"/>
<path d="M26080 9794 c0 -31 23 -28 28 4 2 15 -2 22 -12 22 -11 0 -16 -9 -16
-26z"/>
<path d="M25472 9680 c0 -14 2 -19 5 -12 2 6 2 18 0 25 -3 6 -5 1 -5 -13z"/>
<path d="M26030 9691 c0 -5 7 -12 16 -15 14 -5 15 -4 4 9 -14 17 -20 19 -20 6z"/>
<path d="M25910 9651 c0 -5 -6 -9 -12 -8 -58 2 -78 -4 -78 -23 0 -11 7 -20 15
-20 8 0 15 -4 15 -10 0 -5 14 -10 30 -10 20 0 30 5 30 15 0 8 5 15 10 15 6 0
10 7 10 15 0 8 5 15 10 15 6 0 10 5 10 10 0 6 -9 10 -20 10 -11 0 -20 -4 -20
-9z"/>
<path d="M25483 9604 c-8 -21 -4 -22 55 -28 32 -3 52 -1 52 5 0 6 4 8 8 5 5
-3 20 -7 35 -10 19 -3 27 0 27 10 0 8 -7 14 -15 14 -8 0 -15 3 -15 8 0 4 -32
8 -70 9 -55 2 -72 -1 -77 -13z"/>
<path d="M25692 9485 c-30 -31 -28 -35 13 -35 30 0 35 3 35 24 0 33 -22 38
-48 11z"/>
<path d="M25765 9420 c-4 -6 6 -10 22 -10 22 0 25 2 13 10 -19 12 -27 12 -35
0z"/>
<path d="M26150 9410 c0 -5 7 -7 15 -4 8 4 15 8 15 10 0 2 -7 4 -15 4 -8 0
-15 -4 -15 -10z"/>
<path d="M26338 9382 c-22 -4 -24 -41 -4 -68 13 -17 15 -17 21 -2 4 9 5 29 3
45 -2 21 -8 28 -20 25z"/>
<path d="M25506 9358 c-8 -5 -31 -6 -50 -4 -28 4 -36 1 -41 -15 -4 -10 -4 -23
-1 -28 10 -16 80 -23 111 -11 36 14 68 46 60 60 -7 12 -58 10 -79 -2z"/>
<path d="M26103 9323 c-20 -8 -15 -23 7 -23 11 0 20 7 20 15 0 15 -6 17 -27 8z"/>
<path d="M25697 9236 c-13 -33 -8 -46 18 -46 18 0 25 5 25 20 0 11 -6 20 -14
20 -8 0 -16 5 -18 12 -3 7 -7 5 -11 -6z"/>
<path d="M25810 9209 c0 -12 6 -16 20 -12 11 3 20 9 20 13 0 5 8 10 18 13 9 2
0 4 -20 3 -29 0 -38 -4 -38 -17z"/>
<path d="M26020 9208 c0 -13 7 -32 15 -42 8 -11 15 -26 15 -34 0 -21 27 -43
44 -36 14 5 14 8 1 21 -9 8 -12 19 -9 25 4 7 2 8 -4 4 -7 -4 -12 -2 -12 4 0 6
-5 8 -12 4 -7 -5 -9 -2 -6 7 3 8 0 23 -8 33 -7 11 -11 23 -8 27 3 5 0 9 -5 9
-6 0 -11 -10 -11 -22z"/>
<path d="M25478 9213 c7 -3 16 -2 19 1 4 3 -2 6 -13 5 -11 0 -14 -3 -6 -6z"/>
<path d="M25855 9190 c-3 -5 -1 -10 4 -10 6 0 11 5 11 10 0 6 -2 10 -4 10 -3
0 -8 -4 -11 -10z"/>
<path d="M25725 9051 c-3 -5 -1 -12 4 -15 5 -3 11 1 15 9 6 16 -9 21 -19 6z"/>
<path d="M25860 8995 c0 -8 4 -15 9 -15 5 0 16 -2 23 -5 9 -4 14 2 14 15 0 14
-7 20 -23 20 -14 0 -23 -6 -23 -15z"/>
<path d="M26871 8863 c-1 -13 26 -43 40 -43 5 0 9 10 9 21 0 16 -5 20 -20 16
-10 -3 -21 0 -24 7 -3 8 -5 8 -5 -1z"/>
<path d="M25943 8831 c4 -17 2 -31 -4 -33 -6 -2 -11 -10 -12 -18 -2 -8 -6 -20
-10 -27 -9 -14 5 -24 21 -14 6 4 10 17 7 29 -2 13 0 20 6 17 5 -4 7 -10 4 -15
-3 -5 1 -12 8 -17 8 -4 17 -15 21 -23 3 -8 4 -4 2 9 -3 17 1 25 15 28 30 8 22
23 -13 24 -18 1 -25 3 -15 6 11 3 17 14 17 34 0 25 -4 29 -26 29 -24 0 -26 -3
-21 -29z"/>
<path d="M25739 8812 c-3 -20 -2 -29 4 -23 5 5 7 19 5 32 -3 20 -5 19 -9 -9z"/>
<path d="M25672 8748 c-30 -15 -23 -31 16 -35 32 -4 62 14 62 36 0 14 -48 13
-78 -1z"/>
<path d="M25970 8701 c0 -24 13 -38 31 -34 29 8 25 43 -6 43 -14 0 -25 -4 -25
-9z"/>
<path d="M25548 8672 c-30 -3 -38 -7 -38 -23 0 -15 7 -19 35 -19 23 0 35 -5
35 -14 0 -8 8 -12 23 -9 12 2 44 -7 70 -20 46 -24 48 -24 58 -6 5 10 7 30 3
43 -5 23 -9 24 -60 19 -37 -4 -54 -2 -54 6 0 6 -6 11 -14 11 -8 0 -16 3 -18 8
-1 4 -20 6 -40 4z"/>
<path d="M25402 8631 c-11 -7 -11 -9 2 -14 10 -4 16 -1 16 8 0 17 -1 17 -18 6z"/>
<path d="M26325 8619 c-4 -6 -4 -13 -1 -16 3 -4 6 0 6 7 0 9 5 7 15 -6 14 -18
14 -18 8 4 -6 24 -18 29 -28 11z"/>
<path d="M25385 8600 c-7 -11 14 -111 26 -120 3 -3 8 -11 11 -19 5 -18 68 -22
85 -5 28 28 4 74 -39 74 -35 0 -52 16 -53 46 0 28 -18 43 -30 24z"/>
<path d="M26345 8559 c-3 -9 6 -35 21 -60 14 -24 23 -35 20 -24 -6 20 -6 20 9
1 12 -16 15 -17 20 -4 8 21 -12 67 -32 75 -10 4 -21 11 -25 17 -4 7 -9 5 -13
-5z m25 -29 c0 -5 -2 -10 -4 -10 -3 0 -8 5 -11 10 -3 6 -1 10 4 10 6 0 11 -4
11 -10z"/>
<path d="M25670 8470 c-13 -8 -13 -13 -2 -31 8 -11 9 -18 3 -14 -6 3 -11 1
-11 -5 0 -6 12 -15 26 -20 32 -13 47 -13 39 -1 -3 5 -1 12 4 16 12 7 10 45 -2
45 -4 0 -5 5 -2 10 8 13 -35 13 -55 0z"/>
<path d="M25880 8430 c0 -19 -7 -33 -20 -40 -11 -6 -20 -19 -20 -30 0 -20 9
-20 83 -5 15 3 27 1 27 -4 0 -16 31 -22 44 -8 21 21 4 49 -32 52 -34 3 -62 25
-62 49 0 9 -4 16 -10 16 -5 0 -10 -13 -10 -30z"/>
<path d="M26640 8415 c0 -8 5 -15 10 -15 6 0 10 7 10 15 0 8 -4 15 -10 15 -5
0 -10 -7 -10 -15z"/>
<path d="M25476 8367 c-11 -43 -7 -69 12 -65 10 2 16 11 14 21 -2 9 2 17 8 17
5 0 10 -5 10 -11 0 -5 4 -8 9 -4 5 3 12 1 15 -4 3 -5 16 -7 28 -3 12 3 19 1
15 -4 -3 -6 3 -11 14 -11 15 -1 19 5 19 31 0 31 -3 34 -42 41 -93 16 -95 16
-102 -8z"/>
<path d="M25730 8308 c0 -32 13 -88 21 -88 15 0 21 42 9 71 -13 29 -30 39 -30
17z"/>
<path d="M25276 8269 c6 -11 31 -12 37 -1 3 4 -6 8 -19 8 -13 1 -21 -2 -18 -7z"/>
<path d="M25970 8196 c0 -8 -6 -16 -12 -19 -9 -3 -5 -12 11 -28 16 -15 26 -19
29 -11 2 7 8 10 13 6 13 -8 11 40 -3 54 -16 16 -38 15 -38 -2z"/>
<path d="M25525 8190 c3 -5 8 -10 11 -10 2 0 4 5 4 10 0 6 -5 10 -11 10 -5 0
-7 -4 -4 -10z"/>
<path d="M25500 8150 c0 -5 15 -10 34 -10 19 0 38 5 41 10 4 6 -10 10 -34 10
-23 0 -41 -4 -41 -10z"/>
<path d="M25270 8065 c0 -8 7 -15 15 -15 8 0 15 7 15 15 0 8 -7 15 -15 15 -8
0 -15 -7 -15 -15z"/>
<path d="M25930 8045 c0 -8 5 -15 10 -15 6 0 10 7 10 15 0 8 -4 15 -10 15 -5
0 -10 -7 -10 -15z"/>
<path d="M24828 7973 c-30 -3 -38 -9 -38 -24 0 -21 30 -27 31 -6 0 6 4 2 9
-10 5 -13 14 -23 20 -23 6 0 8 -5 4 -12 -4 -6 -3 -8 3 -5 5 3 10 24 11 47 1
22 1 39 -1 38 -1 -1 -19 -3 -39 -5z"/>
<path d="M25387 7973 c-8 -13 5 -73 15 -73 5 0 8 18 6 40 -2 37 -11 50 -21 33z"/>
<path d="M24710 7910 c0 -5 -16 -10 -35 -10 -32 0 -40 -7 -36 -32 2 -12 -14
-9 -28 5 -11 10 -13 10 -7 0 5 -9 -1 -13 -18 -13 -14 0 -26 6 -26 13 0 6 -5 4
-11 -6 -16 -27 -1 -56 37 -72 39 -16 39 -16 19 -70 -8 -22 -14 -53 -15 -68 0
-27 2 -28 37 -25 29 2 39 8 41 23 2 11 8 30 14 41 14 30 7 57 -20 69 -39 17
-25 51 28 62 27 6 65 11 81 12 21 1 31 25 23 57 -5 20 -12 24 -45 24 -21 0
-39 -4 -39 -10z m-100 -100 c0 -5 -4 -10 -10 -10 -5 0 -10 5 -10 10 0 6 5 10
10 10 6 0 10 -4 10 -10z"/>
<path d="M24815 7910 c3 -5 8 -10 11 -10 2 0 4 5 4 10 0 6 -5 10 -11 10 -5 0
-7 -4 -4 -10z"/>
<path d="M25250 7805 c0 -9 7 -18 15 -21 8 -4 12 -10 10 -15 -7 -10 43 -24 53
-14 4 3 -1 11 -11 16 -9 6 -17 19 -17 29 0 15 -7 20 -25 20 -16 0 -25 -6 -25
-15z"/>
<path d="M24790 7760 c0 -13 7 -20 20 -20 11 0 20 6 20 13 0 8 4 7 10 -3 8
-13 10 -13 10 1 0 17 -19 29 -46 29 -8 0 -14 -9 -14 -20z"/>
<path d="M24000 7748 c-40 -27 -51 -63 -23 -71 84 -24 136 -14 126 23 -3 12 0
20 7 20 6 0 10 10 8 23 -5 33 -72 36 -118 5z"/>
<path d="M24377 7688 c2 -45 5 -83 6 -84 1 -1 14 -4 30 -8 24 -6 27 -4 27 19
0 14 -4 25 -10 25 -5 0 -10 7 -10 15 0 8 4 15 8 15 4 0 5 21 2 48 -4 42 -8 47
-31 50 l-27 3 5 -83z"/>
<path d="M25383 7763 c-7 -2 -13 -9 -13 -15 0 -12 41 -6 41 7 1 12 -11 15 -28
8z"/>
<path d="M24474 7731 c4 -5 2 -21 -4 -35 -6 -17 -6 -26 0 -26 6 0 10 -6 10
-13 0 -8 7 -14 15 -14 9 0 14 5 12 11 -2 6 3 16 12 22 13 10 13 14 -2 38 -16
23 -57 40 -43 17z"/>
<path d="M25152 7643 c5 -25 28 -28 28 -4 0 12 -6 21 -16 21 -9 0 -14 -7 -12
-17z"/>
<path d="M24203 7571 c6 -25 -10 -51 -32 -51 -28 0 -27 -66 1 -81 17 -9 23 -9
26 0 5 14 57 15 83 1 15 -8 19 -7 19 4 0 28 -12 45 -27 39 -14 -5 -15 0 -10
30 9 56 -1 77 -35 77 -25 0 -29 -4 -25 -19z"/>
<path d="M23810 7540 c0 -11 5 -20 10 -20 6 0 10 9 10 20 0 11 -4 20 -10 20
-5 0 -10 -9 -10 -20z"/>
<path d="M24588 7524 c-10 -21 -9 -27 3 -35 24 -15 29 -10 29 26 0 41 -16 46
-32 9z"/>
<path d="M25265 7540 c-7 -12 12 -40 27 -40 13 0 6 43 -9 47 -6 2 -14 -1 -18
-7z"/>
<path d="M24150 7239 c0 -54 -14 -67 -80 -75 -92 -10 -77 -45 18 -42 24 1 38
8 49 25 8 12 19 20 25 17 29 -18 53 67 26 94 -22 22 -38 13 -38 -19z"/>
<path d="M23806 7228 c-10 -38 -7 -46 18 -52 13 -3 26 -15 29 -26 6 -22 47
-29 47 -7 0 30 -13 56 -31 60 -11 3 -19 14 -19 26 0 29 -36 28 -44 -1z"/>
<path d="M24400 7144 c0 -3 6 -12 14 -20 21 -21 46 -17 46 6 0 16 -7 20 -30
20 -16 0 -30 -3 -30 -6z"/>
<path d="M25940 7136 c0 -20 27 -28 34 -10 9 23 8 24 -14 24 -11 0 -20 -6 -20
-14z"/>
<path d="M23970 7020 c0 -13 7 -20 20 -20 13 0 20 7 20 20 0 13 -7 20 -20 20
-13 0 -20 -7 -20 -20z"/>
<path d="M23780 6893 c14 -3 28 -10 32 -17 5 -7 8 -5 8 7 0 13 -8 17 -32 16
-28 -2 -29 -2 -8 -6z"/>
<path d="M23488 6839 c5 -34 29 -46 37 -19 8 24 1 36 -23 42 -15 4 -17 0 -14
-23z"/>
<path d="M23580 6846 c0 -8 13 -17 30 -21 16 -4 32 -11 35 -16 4 -5 15 -9 25
-9 14 0 18 5 13 17 -4 11 -3 14 5 9 7 -4 12 -1 12 9 0 9 -4 14 -9 11 -5 -4
-11 -1 -13 5 -3 9 -9 9 -24 1 -13 -7 -26 -7 -35 -1 -21 13 -39 11 -39 -5z"/>
<path d="M23340 6729 c0 -15 -4 -30 -10 -34 -5 -3 -7 -12 -3 -20 3 -8 1 -15
-4 -15 -8 0 -7 -121 2 -147 6 -18 85 -17 85 1 0 8 -7 17 -16 20 -13 5 -15 14
-9 43 4 20 13 46 21 57 16 23 19 96 4 96 -5 0 -10 6 -10 13 0 8 -12 14 -30 14
-26 0 -30 -4 -30 -28z"/>
<path d="M22972 6685 c0 -16 2 -22 5 -12 2 9 2 23 0 30 -3 6 -5 -1 -5 -18z"/>
<path d="M23793 6684 c0 -7 6 -10 14 -7 7 3 13 8 13 12 0 4 -6 8 -13 8 -8 0
-14 -6 -14 -13z"/>
<path d="M23079 6617 c-20 -16 -42 -57 -35 -65 8 -7 32 -12 71 -15 24 -1 31 3
33 20 3 24 -26 72 -43 72 -5 0 -17 -5 -26 -12z"/>
<path d="M23490 6586 c-14 -18 -6 -50 13 -44 15 6 22 37 10 49 -6 6 -15 4 -23
-5z"/>
<path d="M23130 6500 c18 -12 30 -13 30 -2 0 4 -10 9 -22 9 -18 2 -20 0 -8 -7z"/>
<path d="M23100 6488 c0 -5 -4 -6 -10 -3 -11 7 -13 -25 -2 -40 4 -5 21 -11 39
-11 23 -1 33 3 36 17 3 11 2 17 -3 14 -4 -3 -10 1 -13 9 -6 16 -47 29 -47 14z"/>
<path d="M22926 6345 c-15 -11 -17 -21 -12 -50 6 -31 11 -36 27 -32 14 4 23
-1 29 -16 9 -21 9 -21 10 3 1 23 2 23 10 5 7 -17 9 -17 9 -2 1 9 6 17 11 17
15 0 12 60 -4 76 -18 18 -55 18 -80 -1z"/>
<path d="M23090 6295 c0 -9 9 -15 25 -15 16 0 25 6 25 15 0 9 -9 15 -25 15
-16 0 -25 -6 -25 -15z"/>
<path d="M22912 6216 c-11 -25 -7 -36 15 -36 8 0 13 12 13 30 0 36 -13 39 -28
6z"/>
<path d="M23080 6220 c-10 -6 -11 -10 -2 -10 6 0 12 -7 12 -15 0 -8 9 -15 20
-15 12 0 20 7 20 18 0 9 4 13 8 7 11 -15 49 -14 49 1 0 8 -10 13 -21 13 -12 0
-32 2 -46 6 -14 3 -32 1 -40 -5z"/>
<path d="M23158 6082 c-10 -2 -18 -12 -18 -23 0 -10 -4 -19 -10 -19 -5 0 -10
-11 -10 -24 0 -18 7 -25 27 -29 38 -7 43 -2 43 41 0 44 -9 59 -32 54z"/>
<path d="M23038 5963 c-36 -9 -20 -33 22 -33 41 0 57 21 24 34 -17 6 -19 6
-46 -1z"/>
<path d="M23842 5938 c-16 -16 -15 -38 1 -38 19 0 36 20 30 36 -6 17 -15 18
-31 2z"/>
<path d="M23120 5874 c-19 -8 -43 -17 -52 -20 -23 -8 -25 -64 -3 -64 8 0 15 5
15 10 0 6 11 10 25 10 14 0 25 5 25 10 0 6 6 10 14 10 8 0 16 13 18 30 5 34 6
34 -42 14z"/>
<path d="M23130 5705 c0 -15 6 -25 14 -25 8 0 21 -3 30 -6 13 -5 16 1 16 25 0
28 -3 31 -30 31 -25 0 -30 -4 -30 -25z"/>
<path d="M22956 5694 c-4 -9 -4 -19 -1 -22 3 -3 5 -2 5 2 0 5 10 1 23 -7 14
-9 29 -12 37 -7 19 11 3 30 -26 30 -14 0 -22 4 -19 10 3 6 2 10 -3 10 -6 0
-13 -7 -16 -16z"/>
<path d="M22851 5634 c0 -11 3 -14 6 -6 3 7 2 16 -1 19 -3 4 -6 -2 -5 -13z"/>
<path d="M8096 5608 c3 -4 9 -8 15 -8 5 0 9 4 9 8 0 5 -7 9 -15 9 -8 0 -12 -4
-9 -9z"/>
<path d="M22918 5602 c-24 -2 -38 -8 -38 -17 0 -8 -9 -20 -21 -28 -14 -10 -23
-34 -31 -81 -6 -36 -15 -66 -19 -66 -5 0 -9 -7 -9 -15 0 -9 -5 -21 -10 -28 -6
-7 -22 -25 -36 -42 -21 -25 -24 -36 -19 -65 4 -19 8 -46 9 -59 2 -15 12 -28
25 -33 12 -4 29 -15 37 -23 18 -18 65 -20 82 -3 14 14 16 64 3 73 -5 3 -20 0
-33 -5 -28 -13 -78 2 -78 23 0 26 42 69 61 64 16 -4 19 1 19 39 0 24 5 44 10
44 6 0 10 35 10 84 0 95 4 99 85 100 33 1 41 5 43 22 3 22 -7 24 -90 16z"/>
<path d="M23260 5580 c0 -11 7 -20 15 -20 8 0 15 9 15 20 0 11 -7 20 -15 20
-8 0 -15 -9 -15 -20z"/>
<path d="M23628 5592 c-22 -4 -24 -32 -3 -32 9 0 18 7 22 15 7 19 3 22 -19 17z"/>
<path d="M23470 5316 c0 -7 9 -16 20 -19 15 -4 20 0 20 14 0 12 -7 19 -20 19
-11 0 -20 -6 -20 -14z"/>
<path d="M23597 5293 c-12 -11 -8 -23 8 -23 8 0 15 7 15 15 0 16 -12 20 -23 8z"/>
<path d="M23141 5271 c-11 -7 -9 -10 7 -15 26 -8 92 3 92 15 0 12 -81 11 -99
0z"/>
<path d="M22576 5142 c-2 -4 0 -18 5 -31 9 -23 10 -24 24 -5 8 10 15 24 15 29
0 12 -37 18 -44 7z"/>
<path d="M22812 5080 c-19 -32 -15 -52 11 -48 17 2 23 11 25 36 4 37 -16 44
-36 12z"/>
<path d="M22683 5056 c3 -8 -1 -17 -9 -20 -8 -3 -14 -16 -14 -28 0 -18 6 -23
29 -25 32 -2 42 16 34 61 -4 18 -12 26 -25 26 -13 0 -18 -5 -15 -14z"/>
<path d="M23200 4895 c0 -8 7 -15 15 -15 8 0 15 7 15 15 0 8 -7 15 -15 15 -8
0 -15 -7 -15 -15z"/>
<path d="M22954 4845 c-4 -8 -12 -15 -20 -15 -9 0 -14 -11 -14 -29 0 -27 4
-30 51 -41 27 -7 53 -10 56 -6 3 3 0 26 -7 51 -9 32 -16 42 -21 33 -7 -10 -9
-9 -9 5 0 21 -28 23 -36 2z"/>
<path d="M23320 4835 c0 -22 4 -25 40 -25 22 0 40 2 40 5 0 15 -38 45 -57 45
-18 0 -23 -6 -23 -25z"/>
<path d="M23222 4763 c-17 -3 -22 -10 -20 -26 2 -17 11 -23 41 -25 25 -2 37 1
37 10 -1 13 -24 49 -31 47 -2 -1 -14 -4 -27 -6z"/>
<path d="M22810 4641 c0 -6 7 -11 15 -11 12 0 14 -10 9 -55 -6 -45 -4 -55 8
-55 8 0 21 11 28 25 10 19 21 25 46 25 20 0 34 6 38 16 13 33 7 40 -30 36 -20
-3 -39 0 -43 6 -9 14 -71 26 -71 13z"/>
<path d="M23120 4510 c0 -5 5 -10 10 -10 6 0 10 5 10 10 0 6 -4 10 -10 10 -5
0 -10 -4 -10 -10z"/>
<path d="M22880 4430 c0 -5 15 -10 34 -10 19 0 37 -6 39 -12 3 -7 6 -3 6 10 1
19 -4 22 -39 22 -22 0 -40 -4 -40 -10z"/>
<path d="M22583 4364 c-18 -8 -16 -70 3 -88 19 -20 104 -18 104 2 0 7 5 10 10
7 6 -4 10 8 10 29 0 24 -5 36 -17 40 -34 9 -98 15 -110 10z"/>
<path d="M22837 4344 c-13 -13 -7 -24 14 -24 11 0 19 5 17 12 -5 14 -22 21
-31 12z"/>
<path d="M22985 4339 c-11 -16 4 -59 20 -59 16 0 31 43 20 59 -3 6 -12 11 -20
11 -8 0 -17 -5 -20 -11z"/>
<path d="M22830 4200 c0 -5 -7 -10 -15 -10 -10 0 -15 -11 -15 -35 0 -24 5 -35
15 -35 8 0 15 -4 15 -10 0 -5 7 -10 15 -10 16 0 40 73 31 96 -6 16 -46 19 -46
4z"/>
<path d="M22622 4028 c4 -29 38 -38 38 -10 0 11 -7 23 -16 26 -24 9 -26 8 -22
-16z"/>
<path d="M22868 4033 c-19 -5 -24 -28 -8 -38 13 -8 110 5 110 15 0 4 -10 10
-22 13 -13 3 -32 8 -43 10 -11 3 -28 3 -37 0z"/>
<path d="M22500 4003 c-31 -12 -40 -51 -17 -75 25 -27 38 -60 32 -79 -8 -25 3
-59 19 -59 10 0 15 26 18 91 8 126 1 142 -52 122z"/>
<path d="M22712 3811 c3 -39 6 -46 26 -49 20 -3 22 1 22 41 0 40 -3 45 -25 50
-25 4 -26 3 -23 -42z"/>
<path d="M22503 3733 c-20 -8 -15 -40 7 -46 23 -6 45 16 36 38 -5 15 -20 18
-43 8z"/>
<path d="M22359 3703 c-1 -4 -1 -11 -1 -15 1 -3 -5 -11 -13 -18 -7 -6 -12 -17
-9 -25 3 -7 1 -16 -5 -19 -6 -4 -8 -13 -4 -21 3 -8 0 -15 -6 -15 -6 0 -11 -19
-11 -44 0 -25 -5 -48 -10 -51 -20 -12 13 -75 38 -75 17 0 23 32 16 86 -6 50
-5 53 31 86 36 33 37 36 29 74 -7 29 -15 40 -32 42 -12 2 -23 0 -23 -5z"/>
<path d="M22563 3500 c2 -59 22 -67 31 -12 9 56 8 62 -14 62 -17 0 -19 -6 -17
-50z"/>
<path d="M22182 3173 c4 -51 7 -58 26 -61 21 -3 22 0 22 57 0 59 -1 61 -26 61
-25 0 -26 -1 -22 -57z"/>
<path d="M21878 3102 c-9 -2 -19 -15 -23 -29 -7 -30 -60 -83 -82 -83 -11 0
-14 -6 -9 -22 3 -13 6 -26 6 -30 0 -4 7 -5 15 -2 8 4 15 1 15 -6 0 -17 23 -37
42 -37 17 0 38 61 38 111 0 14 5 26 10 26 6 0 10 8 10 18 0 10 4 22 9 28 12
12 -9 31 -31 26z"/>
<path d="M22460 3041 c-13 -25 -13 -61 0 -61 22 0 61 46 54 63 -8 23 -41 21
-54 -2z"/>
<path d="M22277 3003 c-10 -21 -1 -58 17 -61 26 -5 40 12 32 42 -6 25 -39 37
-49 19z"/>
<path d="M21942 2900 c0 -14 2 -19 5 -12 2 6 2 18 0 25 -3 6 -5 1 -5 -13z"/>
<path d="M21872 2838 c-18 -18 -15 -36 9 -43 23 -8 41 9 36 35 -3 19 -29 24
-45 8z"/>
<path d="M22233 2834 c-8 -20 13 -42 27 -28 12 12 3 44 -11 44 -5 0 -12 -7
-16 -16z"/>
<path d="M22381 2824 c0 -11 3 -14 6 -6 3 7 2 16 -1 19 -3 4 -6 -2 -5 -13z"/>
<path d="M22220 2680 c-8 -5 -10 -10 -5 -10 6 0 17 5 25 10 8 5 11 10 5 10 -5
0 -17 -5 -25 -10z"/>
<path d="M21980 2578 c-109 -47 -160 -72 -156 -75 3 -4 186 74 195 83 8 7 -13
3 -39 -8z"/>
</g>
</svg>
